STARTFONT 2.1
COMMENT
COMMENT Converted from OpenType font "montserrat_regular.ttf" by "otf2bdf 3.0".
COMMENT
FONT -FreeType-Montserrat Thin-Medium-R-Normal--10-70-100-100-P-48-ISO10646-1
SIZE 7 100 100
FONTBOUNDINGBOX 16 13 -1 -3
STARTPROPERTIES 19
FOUNDRY "FreeType"
FAMILY_NAME "Montserrat Thin"
WEIGHT_NAME "Medium"
SLANT "R"
SETWIDTH_NAME "Normal"
ADD_STYLE_NAME ""
PIXEL_SIZE 10
POINT_SIZE 70
RESOLUTION_X 100
RESOLUTION_Y 100
SPACING "P"
AVERAGE_WIDTH 48
CHARSET_REGISTRY "ISO10646"
CHARSET_ENCODING "1"
FONT_ASCENT 9
FONT_DESCENT 2
COPYRIGHT "Copyright 2011 The Montserrat Project Authors (https://github.com/JulietaUla/Montserrat)"
_OTF_FONTFILE "montserrat_regular.ttf"
_OTF_PSNAME "Montserrat-Thin"
ENDPROPERTIES
CHARS 969
STARTCHAR 0000
ENCODING 0
SWIDTH 0 0
DWIDTH 0 0
BBX 0 0 0 0
BITMAP
ENDCHAR
STARTCHAR 000D
ENCODING 13
SWIDTH 205 0
DWIDTH 2 0
BBX 0 0 0 0
BITMAP
ENDCHAR
STARTCHAR 0020
ENCODING 32
SWIDTH 205 0
DWIDTH 2 0
BBX 0 0 0 0
BITMAP
ENDCHAR
STARTCHAR 0021
ENCODING 33
SWIDTH 205 0
DWIDTH 2 0
BBX 1 3 1 1
BITMAP
80
80
80
ENDCHAR
STARTCHAR 0022
ENCODING 34
SWIDTH 308 0
DWIDTH 3 0
BBX 1 1 1 5
BITMAP
80
ENDCHAR
STARTCHAR 0023
ENCODING 35
SWIDTH 617 0
DWIDTH 6 0
BBX 4 6 1 0
BITMAP
40
90
F0
90
90
E0
ENDCHAR
STARTCHAR 0024
ENCODING 36
SWIDTH 514 0
DWIDTH 5 0
BBX 4 8 1 0
BITMAP
F0
C0
C0
40
70
50
50
20
ENDCHAR
STARTCHAR 0025
ENCODING 37
SWIDTH 720 0
DWIDTH 7 0
BBX 7 7 0 0
BITMAP
E0
A8
A8
B4
6A
2A
0E
ENDCHAR
STARTCHAR 0026
ENCODING 38
SWIDTH 617 0
DWIDTH 6 0
BBX 5 7 1 0
BITMAP
E0
A0
A0
C0
A8
90
E8
ENDCHAR
STARTCHAR 0027
ENCODING 39
SWIDTH 102 0
DWIDTH 1 0
BBX 1 1 0 5
BITMAP
80
ENDCHAR
STARTCHAR 0028
ENCODING 40
SWIDTH 308 0
DWIDTH 3 0
BBX 1 7 1 -1
BITMAP
80
80
80
80
80
80
80
ENDCHAR
STARTCHAR 0029
ENCODING 41
SWIDTH 308 0
DWIDTH 3 0
BBX 1 7 1 -1
BITMAP
80
80
80
80
80
80
80
ENDCHAR
STARTCHAR 002A
ENCODING 42
SWIDTH 308 0
DWIDTH 3 0
BBX 1 1 1 5
BITMAP
80
ENDCHAR
STARTCHAR 002B
ENCODING 43
SWIDTH 514 0
DWIDTH 5 0
BBX 2 2 2 2
BITMAP
80
C0
ENDCHAR
STARTCHAR 002C
ENCODING 44
SWIDTH 102 0
DWIDTH 1 0
BBX 0 0 0 -1
BITMAP
ENDCHAR
STARTCHAR 002D
ENCODING 45
SWIDTH 308 0
DWIDTH 3 0
BBX 2 1 1 2
BITMAP
C0
ENDCHAR
STARTCHAR 002E
ENCODING 46
SWIDTH 102 0
DWIDTH 1 0
BBX 0 0 0 0
BITMAP
ENDCHAR
STARTCHAR 002F
ENCODING 47
SWIDTH 205 0
DWIDTH 2 0
BBX 3 7 0 0
BITMAP
20
40
40
40
80
80
80
ENDCHAR
STARTCHAR 0030
ENCODING 48
SWIDTH 617 0
DWIDTH 6 0
BBX 5 7 1 0
BITMAP
E0
90
88
88
88
90
F0
ENDCHAR
STARTCHAR 0031
ENCODING 49
SWIDTH 308 0
DWIDTH 3 0
BBX 1 6 1 0
BITMAP
80
80
80
80
80
80
ENDCHAR
STARTCHAR 0032
ENCODING 50
SWIDTH 514 0
DWIDTH 5 0
BBX 5 7 0 0
BITMAP
F0
08
08
10
20
40
F0
ENDCHAR
STARTCHAR 0033
ENCODING 51
SWIDTH 514 0
DWIDTH 5 0
BBX 4 7 1 0
BITMAP
E0
20
40
20
10
10
E0
ENDCHAR
STARTCHAR 0034
ENCODING 52
SWIDTH 617 0
DWIDTH 6 0
BBX 5 6 0 1
BITMAP
30
20
48
88
78
08
ENDCHAR
STARTCHAR 0035
ENCODING 53
SWIDTH 514 0
DWIDTH 5 0
BBX 5 7 0 0
BITMAP
70
80
80
70
08
08
70
ENDCHAR
STARTCHAR 0036
ENCODING 54
SWIDTH 514 0
DWIDTH 5 0
BBX 4 7 1 0
BITMAP
60
80
80
F0
90
90
F0
ENDCHAR
STARTCHAR 0037
ENCODING 55
SWIDTH 514 0
DWIDTH 5 0
BBX 5 6 0 0
BITMAP
F8
88
10
10
20
20
ENDCHAR
STARTCHAR 0038
ENCODING 56
SWIDTH 617 0
DWIDTH 6 0
BBX 5 7 1 0
BITMAP
E0
90
90
60
90
88
F0
ENDCHAR
STARTCHAR 0039
ENCODING 57
SWIDTH 514 0
DWIDTH 5 0
BBX 5 7 0 0
BITMAP
70
88
88
98
68
08
30
ENDCHAR
STARTCHAR 003A
ENCODING 58
SWIDTH 102 0
DWIDTH 1 0
BBX 0 0 0 0
BITMAP
ENDCHAR
STARTCHAR 003B
ENCODING 59
SWIDTH 102 0
DWIDTH 1 0
BBX 0 0 0 -1
BITMAP
ENDCHAR
STARTCHAR 003C
ENCODING 60
SWIDTH 514 0
DWIDTH 5 0
BBX 3 3 1 2
BITMAP
20
C0
60
ENDCHAR
STARTCHAR 003D
ENCODING 61
SWIDTH 514 0
DWIDTH 5 0
BBX 4 3 1 2
BITMAP
F0
00
60
ENDCHAR
STARTCHAR 003E
ENCODING 62
SWIDTH 514 0
DWIDTH 5 0
BBX 4 3 1 2
BITMAP
80
70
60
ENDCHAR
STARTCHAR 003F
ENCODING 63
SWIDTH 514 0
DWIDTH 5 0
BBX 4 4 0 0
BITMAP
F0
10
10
10
ENDCHAR
STARTCHAR 0040
ENCODING 64
SWIDTH 1028 0
DWIDTH 10 0
BBX 8 9 1 -2
BITMAP
3C
C2
BD
C5
C5
C5
AD
90
7C
ENDCHAR
STARTCHAR 0041
ENCODING 65
SWIDTH 617 0
DWIDTH 6 0
BBX 6 7 0 0
BITMAP
10
30
48
48
88
B4
80
ENDCHAR
STARTCHAR 0042
ENCODING 66
SWIDTH 720 0
DWIDTH 7 0
BBX 6 7 1 0
BITMAP
F0
88
88
F0
8C
84
F8
ENDCHAR
STARTCHAR 0043
ENCODING 67
SWIDTH 617 0
DWIDTH 6 0
BBX 5 7 1 0
BITMAP
78
80
80
80
80
80
70
ENDCHAR
STARTCHAR 0044
ENCODING 68
SWIDTH 822 0
DWIDTH 8 0
BBX 6 7 1 0
BITMAP
F0
8C
84
84
84
84
F8
ENDCHAR
STARTCHAR 0045
ENCODING 69
SWIDTH 617 0
DWIDTH 6 0
BBX 4 7 1 0
BITMAP
F0
80
80
F0
80
80
F0
ENDCHAR
STARTCHAR 0046
ENCODING 70
SWIDTH 617 0
DWIDTH 6 0
BBX 4 6 1 0
BITMAP
70
80
80
80
E0
80
ENDCHAR
STARTCHAR 0047
ENCODING 71
SWIDTH 720 0
DWIDTH 7 0
BBX 5 7 1 0
BITMAP
78
80
80
80
80
80
70
ENDCHAR
STARTCHAR 0048
ENCODING 72
SWIDTH 720 0
DWIDTH 7 0
BBX 6 7 1 0
BITMAP
04
84
84
FC
84
84
04
ENDCHAR
STARTCHAR 0049
ENCODING 73
SWIDTH 205 0
DWIDTH 2 0
BBX 1 5 1 1
BITMAP
80
80
80
80
80
ENDCHAR
STARTCHAR 004A
ENCODING 74
SWIDTH 411 0
DWIDTH 4 0
BBX 3 7 0 0
BITMAP
20
20
20
20
20
20
E0
ENDCHAR
STARTCHAR 004B
ENCODING 75
SWIDTH 617 0
DWIDTH 6 0
BBX 5 6 1 1
BITMAP
90
A0
C0
A0
90
08
ENDCHAR
STARTCHAR 004C
ENCODING 76
SWIDTH 514 0
DWIDTH 5 0
BBX 4 6 1 1
BITMAP
80
80
80
80
80
70
ENDCHAR
STARTCHAR 004D
ENCODING 77
SWIDTH 925 0
DWIDTH 9 0
BBX 7 6 1 0
BITMAP
82
86
C6
CA
AA
B2
ENDCHAR
STARTCHAR 004E
ENCODING 78
SWIDTH 720 0
DWIDTH 7 0
BBX 6 7 1 0
BITMAP
84
84
C4
A4
94
8C
04
ENDCHAR
STARTCHAR 004F
ENCODING 79
SWIDTH 822 0
DWIDTH 8 0
BBX 7 7 1 0
BITMAP
78
84
84
82
84
84
78
ENDCHAR
STARTCHAR 0050
ENCODING 80
SWIDTH 617 0
DWIDTH 6 0
BBX 5 6 1 0
BITMAP
F0
88
88
88
F0
80
ENDCHAR
STARTCHAR 0051
ENCODING 81
SWIDTH 822 0
DWIDTH 8 0
BBX 7 8 1 -1
BITMAP
78
84
84
82
84
84
48
3C
ENDCHAR
STARTCHAR 0052
ENCODING 82
SWIDTH 617 0
DWIDTH 6 0
BBX 5 7 1 0
BITMAP
F0
88
88
88
F0
80
08
ENDCHAR
STARTCHAR 0053
ENCODING 83
SWIDTH 514 0
DWIDTH 5 0
BBX 4 7 1 0
BITMAP
F0
80
80
40
30
10
70
ENDCHAR
STARTCHAR 0054
ENCODING 84
SWIDTH 514 0
DWIDTH 5 0
BBX 3 6 1 0
BITMAP
E0
40
40
40
40
40
ENDCHAR
STARTCHAR 0055
ENCODING 85
SWIDTH 720 0
DWIDTH 7 0
BBX 5 6 1 1
BITMAP
88
88
88
88
88
F8
ENDCHAR
STARTCHAR 0056
ENCODING 86
SWIDTH 617 0
DWIDTH 6 0
BBX 6 6 0 1
BITMAP
84
88
48
50
30
10
ENDCHAR
STARTCHAR 0057
ENCODING 87
SWIDTH 1028 0
DWIDTH 10 0
BBX 10 7 0 0
BITMAP
0800
8C40
8C80
5480
5280
6300
2100
ENDCHAR
STARTCHAR 0058
ENCODING 88
SWIDTH 617 0
DWIDTH 6 0
BBX 4 5 1 1
BITMAP
90
A0
40
A0
90
ENDCHAR
STARTCHAR 0059
ENCODING 89
SWIDTH 514 0
DWIDTH 5 0
BBX 6 6 0 0
BITMAP
84
88
50
50
20
20
ENDCHAR
STARTCHAR 005A
ENCODING 90
SWIDTH 617 0
DWIDTH 6 0
BBX 6 7 0 0
BITMAP
3C
08
10
20
20
40
F8
ENDCHAR
STARTCHAR 005B
ENCODING 91
SWIDTH 205 0
DWIDTH 2 0
BBX 1 9 1 -2
BITMAP
80
80
80
80
80
80
80
80
80
ENDCHAR
STARTCHAR 005C
ENCODING 92
SWIDTH 205 0
DWIDTH 2 0
BBX 3 7 0 0
BITMAP
80
80
80
40
40
40
20
ENDCHAR
STARTCHAR 005D
ENCODING 93
SWIDTH 205 0
DWIDTH 2 0
BBX 1 9 1 -2
BITMAP
80
80
80
80
80
80
80
80
80
ENDCHAR
STARTCHAR 005E
ENCODING 94
SWIDTH 514 0
DWIDTH 5 0
BBX 3 3 1 1
BITMAP
C0
A0
A0
ENDCHAR
STARTCHAR 005F
ENCODING 95
SWIDTH 411 0
DWIDTH 4 0
BBX 3 1 1 -1
BITMAP
E0
ENDCHAR
STARTCHAR 0060
ENCODING 96
SWIDTH 514 0
DWIDTH 5 0
BBX 1 1 2 6
BITMAP
80
ENDCHAR
STARTCHAR 0061
ENCODING 97
SWIDTH 514 0
DWIDTH 5 0
BBX 4 5 1 0
BITMAP
60
10
D0
90
D0
ENDCHAR
STARTCHAR 0062
ENCODING 98
SWIDTH 617 0
DWIDTH 6 0
BBX 5 6 1 1
BITMAP
80
F0
88
88
88
F0
ENDCHAR
STARTCHAR 0063
ENCODING 99
SWIDTH 514 0
DWIDTH 5 0
BBX 4 5 1 0
BITMAP
F0
80
80
80
F0
ENDCHAR
STARTCHAR 0064
ENCODING 100
SWIDTH 617 0
DWIDTH 6 0
BBX 4 6 1 1
BITMAP
10
F0
90
90
90
E0
ENDCHAR
STARTCHAR 0065
ENCODING 101
SWIDTH 514 0
DWIDTH 5 0
BBX 4 5 1 0
BITMAP
E0
90
F0
80
F0
ENDCHAR
STARTCHAR 0066
ENCODING 102
SWIDTH 308 0
DWIDTH 3 0
BBX 2 5 0 1
BITMAP
80
C0
80
80
80
ENDCHAR
STARTCHAR 0067
ENCODING 103
SWIDTH 617 0
DWIDTH 6 0
BBX 4 7 1 -2
BITMAP
F0
90
90
90
B0
50
F0
ENDCHAR
STARTCHAR 0068
ENCODING 104
SWIDTH 617 0
DWIDTH 6 0
BBX 4 5 1 1
BITMAP
80
F0
90
90
90
ENDCHAR
STARTCHAR 0069
ENCODING 105
SWIDTH 205 0
DWIDTH 2 0
BBX 1 3 1 3
BITMAP
80
80
80
ENDCHAR
STARTCHAR 006A
ENCODING 106
SWIDTH 205 0
DWIDTH 2 0
BBX 1 6 0 1
BITMAP
80
80
80
80
80
80
ENDCHAR
STARTCHAR 006B
ENCODING 107
SWIDTH 514 0
DWIDTH 5 0
BBX 4 6 1 1
BITMAP
80
90
E0
80
A0
10
ENDCHAR
STARTCHAR 006C
ENCODING 108
SWIDTH 205 0
DWIDTH 2 0
BBX 1 5 1 1
BITMAP
80
80
80
80
80
ENDCHAR
STARTCHAR 006D
ENCODING 109
SWIDTH 1028 0
DWIDTH 10 0
BBX 8 4 1 0
BITMAP
FF
91
91
91
ENDCHAR
STARTCHAR 006E
ENCODING 110
SWIDTH 617 0
DWIDTH 6 0
BBX 4 4 1 0
BITMAP
F0
90
90
90
ENDCHAR
STARTCHAR 006F
ENCODING 111
SWIDTH 514 0
DWIDTH 5 0
BBX 4 5 1 0
BITMAP
F0
90
90
90
F0
ENDCHAR
STARTCHAR 0070
ENCODING 112
SWIDTH 617 0
DWIDTH 6 0
BBX 5 6 1 -2
BITMAP
F0
88
88
88
90
E0
ENDCHAR
STARTCHAR 0071
ENCODING 113
SWIDTH 617 0
DWIDTH 6 0
BBX 4 6 1 -2
BITMAP
F0
90
90
90
B0
50
ENDCHAR
STARTCHAR 0072
ENCODING 114
SWIDTH 308 0
DWIDTH 3 0
BBX 1 3 1 1
BITMAP
80
80
80
ENDCHAR
STARTCHAR 0073
ENCODING 115
SWIDTH 411 0
DWIDTH 4 0
BBX 4 5 0 0
BITMAP
E0
80
60
10
F0
ENDCHAR
STARTCHAR 0074
ENCODING 116
SWIDTH 308 0
DWIDTH 3 0
BBX 2 5 0 1
BITMAP
C0
80
80
80
40
ENDCHAR
STARTCHAR 0075
ENCODING 117
SWIDTH 617 0
DWIDTH 6 0
BBX 4 4 1 1
BITMAP
90
90
90
F0
ENDCHAR
STARTCHAR 0076
ENCODING 118
SWIDTH 411 0
DWIDTH 4 0
BBX 5 5 0 0
BITMAP
88
90
90
60
60
ENDCHAR
STARTCHAR 0077
ENCODING 119
SWIDTH 822 0
DWIDTH 8 0
BBX 8 5 0 0
BITMAP
90
9B
AA
66
44
ENDCHAR
STARTCHAR 0078
ENCODING 120
SWIDTH 411 0
DWIDTH 4 0
BBX 3 4 1 1
BITMAP
C0
40
C0
20
ENDCHAR
STARTCHAR 0079
ENCODING 121
SWIDTH 411 0
DWIDTH 4 0
BBX 5 7 0 -2
BITMAP
88
90
90
60
20
40
40
ENDCHAR
STARTCHAR 007A
ENCODING 122
SWIDTH 411 0
DWIDTH 4 0
BBX 4 5 0 0
BITMAP
70
30
40
40
E0
ENDCHAR
STARTCHAR 007B
ENCODING 123
SWIDTH 205 0
DWIDTH 2 0
BBX 1 8 1 -2
BITMAP
80
80
80
80
80
80
80
80
ENDCHAR
STARTCHAR 007C
ENCODING 124
SWIDTH 205 0
DWIDTH 2 0
BBX 1 7 1 -1
BITMAP
80
80
80
80
80
80
80
ENDCHAR
STARTCHAR 007D
ENCODING 125
SWIDTH 205 0
DWIDTH 2 0
BBX 1 7 1 -1
BITMAP
80
80
80
80
80
80
80
ENDCHAR
STARTCHAR 007E
ENCODING 126
SWIDTH 514 0
DWIDTH 5 0
BBX 3 1 2 3
BITMAP
E0
ENDCHAR
STARTCHAR 00A0
ENCODING 160
SWIDTH 205 0
DWIDTH 2 0
BBX 0 0 0 0
BITMAP
ENDCHAR
STARTCHAR 00A1
ENCODING 161
SWIDTH 205 0
DWIDTH 2 0
BBX 1 3 1 1
BITMAP
80
80
80
ENDCHAR
STARTCHAR 00A2
ENCODING 162
SWIDTH 514 0
DWIDTH 5 0
BBX 4 6 1 0
BITMAP
F0
C0
C0
C0
D0
20
ENDCHAR
STARTCHAR 00A3
ENCODING 163
SWIDTH 617 0
DWIDTH 6 0
BBX 4 7 1 0
BITMAP
70
80
80
80
E0
80
F0
ENDCHAR
STARTCHAR 00A4
ENCODING 164
SWIDTH 617 0
DWIDTH 6 0
BBX 6 6 0 0
BITMAP
38
C4
84
84
84
78
ENDCHAR
STARTCHAR 00A5
ENCODING 165
SWIDTH 617 0
DWIDTH 6 0
BBX 5 6 0 0
BITMAP
80
88
48
30
28
38
ENDCHAR
STARTCHAR 00A6
ENCODING 166
SWIDTH 205 0
DWIDTH 2 0
BBX 1 7 1 -1
BITMAP
80
00
00
00
00
80
80
ENDCHAR
STARTCHAR 00A7
ENCODING 167
SWIDTH 411 0
DWIDTH 4 0
BBX 4 8 0 -1
BITMAP
70
80
40
30
90
60
10
70
ENDCHAR
STARTCHAR 00A8
ENCODING 168
SWIDTH 514 0
DWIDTH 5 0
BBX 1 1 3 6
BITMAP
80
ENDCHAR
STARTCHAR 00A9
ENCODING 169
SWIDTH 822 0
DWIDTH 8 0
BBX 6 7 1 0
BITMAP
78
84
F4
84
84
F4
78
ENDCHAR
STARTCHAR 00AA
ENCODING 170
SWIDTH 308 0
DWIDTH 3 0
BBX 3 3 0 4
BITMAP
20
60
E0
ENDCHAR
STARTCHAR 00AB
ENCODING 171
SWIDTH 411 0
DWIDTH 4 0
BBX 2 3 1 1
BITMAP
80
C0
C0
ENDCHAR
STARTCHAR 00AC
ENCODING 172
SWIDTH 514 0
DWIDTH 5 0
BBX 2 1 2 2
BITMAP
C0
ENDCHAR
STARTCHAR 00AD
ENCODING 173
SWIDTH 308 0
DWIDTH 3 0
BBX 2 1 1 2
BITMAP
C0
ENDCHAR
STARTCHAR 00AE
ENCODING 174
SWIDTH 822 0
DWIDTH 8 0
BBX 6 7 1 0
BITMAP
78
84
FC
CC
F4
8C
78
ENDCHAR
STARTCHAR 00AF
ENCODING 175
SWIDTH 514 0
DWIDTH 5 0
BBX 2 1 2 6
BITMAP
C0
ENDCHAR
STARTCHAR 00B0
ENCODING 176
SWIDTH 411 0
DWIDTH 4 0
BBX 2 3 1 4
BITMAP
C0
C0
C0
ENDCHAR
STARTCHAR 00B1
ENCODING 177
SWIDTH 514 0
DWIDTH 5 0
BBX 2 4 2 1
BITMAP
80
C0
00
C0
ENDCHAR
STARTCHAR 00B2
ENCODING 178
SWIDTH 411 0
DWIDTH 4 0
BBX 3 4 0 3
BITMAP
60
20
40
E0
ENDCHAR
STARTCHAR 00B3
ENCODING 179
SWIDTH 411 0
DWIDTH 4 0
BBX 2 4 1 3
BITMAP
C0
C0
40
C0
ENDCHAR
STARTCHAR 00B4
ENCODING 180
SWIDTH 514 0
DWIDTH 5 0
BBX 1 1 3 6
BITMAP
80
ENDCHAR
STARTCHAR 00B5
ENCODING 181
SWIDTH 617 0
DWIDTH 6 0
BBX 4 5 1 -1
BITMAP
90
90
90
90
E0
ENDCHAR
STARTCHAR 00B6
ENCODING 182
SWIDTH 514 0
DWIDTH 5 0
BBX 5 8 0 -1
BITMAP
78
C8
48
48
48
48
48
08
ENDCHAR
STARTCHAR 00B7
ENCODING 183
SWIDTH 205 0
DWIDTH 2 0
BBX 0 0 1 2
BITMAP
ENDCHAR
STARTCHAR 00B8
ENCODING 184
SWIDTH 514 0
DWIDTH 5 0
BBX 1 1 3 -1
BITMAP
80
ENDCHAR
STARTCHAR 00B9
ENCODING 185
SWIDTH 411 0
DWIDTH 4 0
BBX 2 3 1 4
BITMAP
80
80
40
ENDCHAR
STARTCHAR 00BA
ENCODING 186
SWIDTH 308 0
DWIDTH 3 0
BBX 4 3 0 4
BITMAP
E0
90
E0
ENDCHAR
STARTCHAR 00BB
ENCODING 187
SWIDTH 411 0
DWIDTH 4 0
BBX 3 1 1 2
BITMAP
A0
ENDCHAR
STARTCHAR 00BC
ENCODING 188
SWIDTH 925 0
DWIDTH 9 0
BBX 8 6 1 1
BITMAP
88
88
10
64
29
07
ENDCHAR
STARTCHAR 00BD
ENCODING 189
SWIDTH 925 0
DWIDTH 9 0
BBX 8 6 1 1
BITMAP
88
88
13
61
22
06
ENDCHAR
STARTCHAR 00BE
ENCODING 190
SWIDTH 925 0
DWIDTH 9 0
BBX 8 7 1 0
BITMAP
C0
C8
48
10
E4
29
07
ENDCHAR
STARTCHAR 00BF
ENCODING 191
SWIDTH 514 0
DWIDTH 5 0
BBX 3 4 1 1
BITMAP
80
80
80
20
ENDCHAR
STARTCHAR 00C0
ENCODING 192
SWIDTH 617 0
DWIDTH 6 0
BBX 6 8 0 0
BITMAP
10
10
30
48
48
88
B4
80
ENDCHAR
STARTCHAR 00C1
ENCODING 193
SWIDTH 617 0
DWIDTH 6 0
BBX 6 7 0 1
BITMAP
10
30
48
48
88
B4
80
ENDCHAR
STARTCHAR 00C2
ENCODING 194
SWIDTH 617 0
DWIDTH 6 0
BBX 6 8 0 0
BITMAP
18
10
30
48
48
88
B4
80
ENDCHAR
STARTCHAR 00C3
ENCODING 195
SWIDTH 617 0
DWIDTH 6 0
BBX 6 8 0 0
BITMAP
10
10
30
48
48
88
B4
80
ENDCHAR
STARTCHAR 00C4
ENCODING 196
SWIDTH 617 0
DWIDTH 6 0
BBX 6 7 0 1
BITMAP
10
30
48
48
88
B4
80
ENDCHAR
STARTCHAR 00C5
ENCODING 197
SWIDTH 617 0
DWIDTH 6 0
BBX 6 9 0 0
BITMAP
30
00
10
30
48
48
88
B4
80
ENDCHAR
STARTCHAR 00C6
ENCODING 198
SWIDTH 925 0
DWIDTH 9 0
BBX 9 7 0 0
BITMAP
0700
1800
2800
2780
4800
B800
8700
ENDCHAR
STARTCHAR 00C7
ENCODING 199
SWIDTH 617 0
DWIDTH 6 0
BBX 5 9 1 -2
BITMAP
78
80
80
80
80
80
40
30
10
ENDCHAR
STARTCHAR 00C8
ENCODING 200
SWIDTH 617 0
DWIDTH 6 0
BBX 4 8 1 0
BITMAP
20
D0
80
80
F0
80
80
F0
ENDCHAR
STARTCHAR 00C9
ENCODING 201
SWIDTH 617 0
DWIDTH 6 0
BBX 4 8 1 0
BITMAP
20
D0
80
80
F0
80
80
F0
ENDCHAR
STARTCHAR 00CA
ENCODING 202
SWIDTH 617 0
DWIDTH 6 0
BBX 4 8 1 0
BITMAP
70
A0
80
80
F0
80
80
F0
ENDCHAR
STARTCHAR 00CB
ENCODING 203
SWIDTH 617 0
DWIDTH 6 0
BBX 4 7 1 1
BITMAP
F0
80
80
F0
80
80
F0
ENDCHAR
STARTCHAR 00CC
ENCODING 204
SWIDTH 205 0
DWIDTH 2 0
BBX 2 7 0 0
BITMAP
40
00
80
80
80
80
80
ENDCHAR
STARTCHAR 00CD
ENCODING 205
SWIDTH 205 0
DWIDTH 2 0
BBX 1 5 1 2
BITMAP
80
80
80
80
80
ENDCHAR
STARTCHAR 00CE
ENCODING 206
SWIDTH 205 0
DWIDTH 2 0
BBX 3 7 0 0
BITMAP
60
00
80
80
80
80
80
ENDCHAR
STARTCHAR 00CF
ENCODING 207
SWIDTH 205 0
DWIDTH 2 0
BBX 1 5 0 2
BITMAP
80
80
80
80
80
ENDCHAR
STARTCHAR 00D0
ENCODING 208
SWIDTH 822 0
DWIDTH 8 0
BBX 7 7 0 0
BITMAP
F8
86
82
F2
82
82
FC
ENDCHAR
STARTCHAR 00D1
ENCODING 209
SWIDTH 720 0
DWIDTH 7 0
BBX 6 8 1 0
BITMAP
10
84
84
C4
A4
94
8C
04
ENDCHAR
STARTCHAR 00D2
ENCODING 210
SWIDTH 822 0
DWIDTH 8 0
BBX 7 7 1 1
BITMAP
78
84
84
82
84
84
78
ENDCHAR
STARTCHAR 00D3
ENCODING 211
SWIDTH 822 0
DWIDTH 8 0
BBX 7 7 1 1
BITMAP
78
84
84
82
84
84
78
ENDCHAR
STARTCHAR 00D4
ENCODING 212
SWIDTH 822 0
DWIDTH 8 0
BBX 7 7 1 1
BITMAP
78
84
84
82
84
84
78
ENDCHAR
STARTCHAR 00D5
ENCODING 213
SWIDTH 822 0
DWIDTH 8 0
BBX 7 8 1 0
BITMAP
10
68
84
84
82
84
84
78
ENDCHAR
STARTCHAR 00D6
ENCODING 214
SWIDTH 822 0
DWIDTH 8 0
BBX 7 7 1 1
BITMAP
78
84
84
82
84
84
78
ENDCHAR
STARTCHAR 00D7
ENCODING 215
SWIDTH 514 0
DWIDTH 5 0
BBX 3 3 1 2
BITMAP
80
40
A0
ENDCHAR
STARTCHAR 00D8
ENCODING 216
SWIDTH 822 0
DWIDTH 8 0
BBX 7 8 1 -1
BITMAP
78
8C
94
A2
A4
C4
48
30
ENDCHAR
STARTCHAR 00D9
ENCODING 217
SWIDTH 720 0
DWIDTH 7 0
BBX 5 6 1 2
BITMAP
88
88
88
88
88
F8
ENDCHAR
STARTCHAR 00DA
ENCODING 218
SWIDTH 720 0
DWIDTH 7 0
BBX 5 6 1 2
BITMAP
88
88
88
88
88
F8
ENDCHAR
STARTCHAR 00DB
ENCODING 219
SWIDTH 720 0
DWIDTH 7 0
BBX 5 6 1 2
BITMAP
88
88
88
88
88
F8
ENDCHAR
STARTCHAR 00DC
ENCODING 220
SWIDTH 720 0
DWIDTH 7 0
BBX 5 6 1 2
BITMAP
88
88
88
88
88
F8
ENDCHAR
STARTCHAR 00DD
ENCODING 221
SWIDTH 514 0
DWIDTH 5 0
BBX 6 6 0 1
BITMAP
84
88
50
50
20
20
ENDCHAR
STARTCHAR 00DE
ENCODING 222
SWIDTH 617 0
DWIDTH 6 0
BBX 5 5 1 1
BITMAP
F0
88
88
88
F0
ENDCHAR
STARTCHAR 00DF
ENCODING 223
SWIDTH 617 0
DWIDTH 6 0
BBX 5 7 1 0
BITMAP
F0
90
90
B0
88
88
10
ENDCHAR
STARTCHAR 00E0
ENCODING 224
SWIDTH 514 0
DWIDTH 5 0
BBX 4 6 1 1
BITMAP
40
60
10
D0
90
D0
ENDCHAR
STARTCHAR 00E1
ENCODING 225
SWIDTH 514 0
DWIDTH 5 0
BBX 4 5 1 2
BITMAP
60
10
D0
90
D0
ENDCHAR
STARTCHAR 00E2
ENCODING 226
SWIDTH 514 0
DWIDTH 5 0
BBX 4 7 1 0
BITMAP
40
00
60
10
D0
90
D0
ENDCHAR
STARTCHAR 00E3
ENCODING 227
SWIDTH 514 0
DWIDTH 5 0
BBX 4 7 1 0
BITMAP
C0
00
60
10
D0
90
D0
ENDCHAR
STARTCHAR 00E4
ENCODING 228
SWIDTH 514 0
DWIDTH 5 0
BBX 4 7 1 0
BITMAP
20
00
60
10
D0
90
D0
ENDCHAR
STARTCHAR 00E5
ENCODING 229
SWIDTH 514 0
DWIDTH 5 0
BBX 4 8 1 0
BITMAP
40
A0
40
60
10
D0
90
D0
ENDCHAR
STARTCHAR 00E6
ENCODING 230
SWIDTH 925 0
DWIDTH 9 0
BBX 8 5 1 0
BITMAP
7E
11
DF
B0
EE
ENDCHAR
STARTCHAR 00E7
ENCODING 231
SWIDTH 514 0
DWIDTH 5 0
BBX 4 7 1 -2
BITMAP
F0
80
80
80
90
60
20
ENDCHAR
STARTCHAR 00E8
ENCODING 232
SWIDTH 514 0
DWIDTH 5 0
BBX 4 7 1 0
BITMAP
40
00
E0
90
F0
80
F0
ENDCHAR
STARTCHAR 00E9
ENCODING 233
SWIDTH 514 0
DWIDTH 5 0
BBX 4 7 1 0
BITMAP
20
00
E0
90
F0
80
F0
ENDCHAR
STARTCHAR 00EA
ENCODING 234
SWIDTH 514 0
DWIDTH 5 0
BBX 4 7 1 0
BITMAP
20
00
E0
90
F0
80
F0
ENDCHAR
STARTCHAR 00EB
ENCODING 235
SWIDTH 514 0
DWIDTH 5 0
BBX 4 7 1 0
BITMAP
20
00
E0
90
F0
80
F0
ENDCHAR
STARTCHAR 00EC
ENCODING 236
SWIDTH 205 0
DWIDTH 2 0
BBX 1 3 0 3
BITMAP
80
80
80
ENDCHAR
STARTCHAR 00ED
ENCODING 237
SWIDTH 205 0
DWIDTH 2 0
BBX 1 3 1 3
BITMAP
80
80
80
ENDCHAR
STARTCHAR 00EE
ENCODING 238
SWIDTH 205 0
DWIDTH 2 0
BBX 2 6 0 0
BITMAP
40
00
00
80
80
80
ENDCHAR
STARTCHAR 00EF
ENCODING 239
SWIDTH 205 0
DWIDTH 2 0
BBX 1 6 0 0
BITMAP
80
00
00
80
80
80
ENDCHAR
STARTCHAR 00F0
ENCODING 240
SWIDTH 617 0
DWIDTH 6 0
BBX 4 7 1 0
BITMAP
70
50
10
F0
90
90
E0
ENDCHAR
STARTCHAR 00F1
ENCODING 241
SWIDTH 617 0
DWIDTH 6 0
BBX 4 6 1 0
BITMAP
50
20
F0
90
90
90
ENDCHAR
STARTCHAR 00F2
ENCODING 242
SWIDTH 514 0
DWIDTH 5 0
BBX 4 7 1 0
BITMAP
40
00
F0
90
90
90
F0
ENDCHAR
STARTCHAR 00F3
ENCODING 243
SWIDTH 514 0
DWIDTH 5 0
BBX 4 7 1 0
BITMAP
20
00
F0
90
90
90
F0
ENDCHAR
STARTCHAR 00F4
ENCODING 244
SWIDTH 514 0
DWIDTH 5 0
BBX 4 7 1 0
BITMAP
60
00
F0
90
90
90
F0
ENDCHAR
STARTCHAR 00F5
ENCODING 245
SWIDTH 514 0
DWIDTH 5 0
BBX 4 7 1 0
BITMAP
40
20
F0
90
90
90
F0
ENDCHAR
STARTCHAR 00F6
ENCODING 246
SWIDTH 514 0
DWIDTH 5 0
BBX 4 5 1 2
BITMAP
F0
90
90
90
F0
ENDCHAR
STARTCHAR 00F7
ENCODING 247
SWIDTH 514 0
DWIDTH 5 0
BBX 2 1 2 3
BITMAP
C0
ENDCHAR
STARTCHAR 00F8
ENCODING 248
SWIDTH 514 0
DWIDTH 5 0
BBX 4 6 1 0
BITMAP
F0
B0
D0
90
90
60
ENDCHAR
STARTCHAR 00F9
ENCODING 249
SWIDTH 617 0
DWIDTH 6 0
BBX 4 4 1 3
BITMAP
90
90
90
F0
ENDCHAR
STARTCHAR 00FA
ENCODING 250
SWIDTH 617 0
DWIDTH 6 0
BBX 4 4 1 3
BITMAP
90
90
90
F0
ENDCHAR
STARTCHAR 00FB
ENCODING 251
SWIDTH 617 0
DWIDTH 6 0
BBX 4 7 1 0
BITMAP
20
00
00
90
90
90
F0
ENDCHAR
STARTCHAR 00FC
ENCODING 252
SWIDTH 617 0
DWIDTH 6 0
BBX 4 7 1 0
BITMAP
40
00
00
90
90
90
F0
ENDCHAR
STARTCHAR 00FD
ENCODING 253
SWIDTH 411 0
DWIDTH 4 0
BBX 5 7 0 0
BITMAP
88
90
90
60
20
40
40
ENDCHAR
STARTCHAR 00FE
ENCODING 254
SWIDTH 617 0
DWIDTH 6 0
BBX 5 7 1 -1
BITMAP
80
F0
88
88
88
90
E0
ENDCHAR
STARTCHAR 00FF
ENCODING 255
SWIDTH 411 0
DWIDTH 4 0
BBX 5 9 0 -2
BITMAP
40
00
88
90
90
60
20
40
40
ENDCHAR
STARTCHAR 0100
ENCODING 256
SWIDTH 617 0
DWIDTH 6 0
BBX 6 8 0 0
BITMAP
10
10
30
48
48
88
B4
80
ENDCHAR
STARTCHAR 0101
ENCODING 257
SWIDTH 514 0
DWIDTH 5 0
BBX 4 7 1 0
BITMAP
E0
00
60
10
D0
90
D0
ENDCHAR
STARTCHAR 0102
ENCODING 258
SWIDTH 617 0
DWIDTH 6 0
BBX 6 8 0 0
BITMAP
10
10
30
48
48
88
B4
80
ENDCHAR
STARTCHAR 0103
ENCODING 259
SWIDTH 514 0
DWIDTH 5 0
BBX 4 7 1 0
BITMAP
80
40
60
10
D0
90
D0
ENDCHAR
STARTCHAR 0104
ENCODING 260
SWIDTH 617 0
DWIDTH 6 0
BBX 6 9 0 -2
BITMAP
10
30
48
48
88
B4
80
00
0C
ENDCHAR
STARTCHAR 0105
ENCODING 261
SWIDTH 514 0
DWIDTH 5 0
BBX 4 7 1 -2
BITMAP
60
10
D0
90
90
60
60
ENDCHAR
STARTCHAR 0106
ENCODING 262
SWIDTH 617 0
DWIDTH 6 0
BBX 5 7 1 1
BITMAP
78
80
80
80
80
80
70
ENDCHAR
STARTCHAR 0107
ENCODING 263
SWIDTH 514 0
DWIDTH 5 0
BBX 4 5 1 2
BITMAP
F0
80
80
80
F0
ENDCHAR
STARTCHAR 0108
ENCODING 264
SWIDTH 617 0
DWIDTH 6 0
BBX 5 7 1 1
BITMAP
78
80
80
80
80
80
70
ENDCHAR
STARTCHAR 0109
ENCODING 265
SWIDTH 514 0
DWIDTH 5 0
BBX 4 7 1 0
BITMAP
60
00
F0
80
80
80
F0
ENDCHAR
STARTCHAR 010A
ENCODING 266
SWIDTH 617 0
DWIDTH 6 0
BBX 5 7 1 1
BITMAP
78
80
80
80
80
80
70
ENDCHAR
STARTCHAR 010B
ENCODING 267
SWIDTH 514 0
DWIDTH 5 0
BBX 4 5 1 2
BITMAP
F0
80
80
80
F0
ENDCHAR
STARTCHAR 010C
ENCODING 268
SWIDTH 617 0
DWIDTH 6 0
BBX 5 7 1 1
BITMAP
78
80
80
80
80
80
70
ENDCHAR
STARTCHAR 010D
ENCODING 269
SWIDTH 514 0
DWIDTH 5 0
BBX 4 7 1 0
BITMAP
20
40
F0
80
80
80
F0
ENDCHAR
STARTCHAR 010E
ENCODING 270
SWIDTH 822 0
DWIDTH 8 0
BBX 6 8 1 0
BITMAP
20
D0
8C
84
84
84
84
F8
ENDCHAR
STARTCHAR 010F
ENCODING 271
SWIDTH 617 0
DWIDTH 6 0
BBX 6 7 1 0
BITMAP
04
10
F0
90
90
90
E0
ENDCHAR
STARTCHAR 0110
ENCODING 272
SWIDTH 822 0
DWIDTH 8 0
BBX 7 7 0 0
BITMAP
F8
86
82
F2
82
82
FC
ENDCHAR
STARTCHAR 0111
ENCODING 273
SWIDTH 617 0
DWIDTH 6 0
BBX 5 6 1 1
BITMAP
18
F0
90
90
90
E0
ENDCHAR
STARTCHAR 0112
ENCODING 274
SWIDTH 617 0
DWIDTH 6 0
BBX 4 8 1 0
BITMAP
20
F0
80
80
F0
80
80
F0
ENDCHAR
STARTCHAR 0113
ENCODING 275
SWIDTH 514 0
DWIDTH 5 0
BBX 4 7 1 0
BITMAP
60
00
E0
90
F0
80
F0
ENDCHAR
STARTCHAR 0114
ENCODING 276
SWIDTH 617 0
DWIDTH 6 0
BBX 4 8 1 0
BITMAP
20
D0
80
80
F0
80
80
F0
ENDCHAR
STARTCHAR 0115
ENCODING 277
SWIDTH 514 0
DWIDTH 5 0
BBX 4 5 1 2
BITMAP
E0
90
F0
80
F0
ENDCHAR
STARTCHAR 0116
ENCODING 278
SWIDTH 617 0
DWIDTH 6 0
BBX 4 7 1 1
BITMAP
F0
80
80
F0
80
80
F0
ENDCHAR
STARTCHAR 0117
ENCODING 279
SWIDTH 514 0
DWIDTH 5 0
BBX 4 5 1 2
BITMAP
E0
90
F0
80
F0
ENDCHAR
STARTCHAR 0118
ENCODING 280
SWIDTH 617 0
DWIDTH 6 0
BBX 4 9 1 -2
BITMAP
F0
80
80
F0
80
80
00
F0
10
ENDCHAR
STARTCHAR 0119
ENCODING 281
SWIDTH 514 0
DWIDTH 5 0
BBX 4 7 1 -2
BITMAP
E0
90
F0
80
90
60
60
ENDCHAR
STARTCHAR 011A
ENCODING 282
SWIDTH 617 0
DWIDTH 6 0
BBX 4 8 1 0
BITMAP
20
D0
80
80
F0
80
80
F0
ENDCHAR
STARTCHAR 011B
ENCODING 283
SWIDTH 514 0
DWIDTH 5 0
BBX 4 7 1 0
BITMAP
20
00
E0
90
F0
80
F0
ENDCHAR
STARTCHAR 011C
ENCODING 284
SWIDTH 720 0
DWIDTH 7 0
BBX 5 7 1 1
BITMAP
78
80
80
80
80
80
70
ENDCHAR
STARTCHAR 011D
ENCODING 285
SWIDTH 617 0
DWIDTH 6 0
BBX 4 9 1 -2
BITMAP
60
00
F0
90
90
90
B0
50
F0
ENDCHAR
STARTCHAR 011E
ENCODING 286
SWIDTH 720 0
DWIDTH 7 0
BBX 5 8 1 0
BITMAP
30
48
80
80
80
80
80
70
ENDCHAR
STARTCHAR 011F
ENCODING 287
SWIDTH 617 0
DWIDTH 6 0
BBX 4 7 1 0
BITMAP
F0
90
90
90
B0
50
F0
ENDCHAR
STARTCHAR 0120
ENCODING 288
SWIDTH 720 0
DWIDTH 7 0
BBX 5 7 1 1
BITMAP
78
80
80
80
80
80
70
ENDCHAR
STARTCHAR 0121
ENCODING 289
SWIDTH 617 0
DWIDTH 6 0
BBX 4 7 1 0
BITMAP
F0
90
90
90
B0
50
F0
ENDCHAR
STARTCHAR 0122
ENCODING 290
SWIDTH 720 0
DWIDTH 7 0
BBX 5 8 1 -3
BITMAP
78
80
80
80
80
80
40
30
ENDCHAR
STARTCHAR 0123
ENCODING 291
SWIDTH 617 0
DWIDTH 6 0
BBX 4 7 1 0
BITMAP
F0
90
90
90
B0
50
F0
ENDCHAR
STARTCHAR 0124
ENCODING 292
SWIDTH 720 0
DWIDTH 7 0
BBX 6 7 1 1
BITMAP
04
84
84
FC
84
84
04
ENDCHAR
STARTCHAR 0125
ENCODING 293
SWIDTH 617 0
DWIDTH 6 0
BBX 5 8 0 0
BITMAP
40
00
00
80
F8
88
88
88
ENDCHAR
STARTCHAR 0126
ENCODING 294
SWIDTH 720 0
DWIDTH 7 0
BBX 7 7 0 0
BITMAP
02
82
FE
7E
82
82
02
ENDCHAR
STARTCHAR 0127
ENCODING 295
SWIDTH 617 0
DWIDTH 6 0
BBX 5 5 0 1
BITMAP
E0
F8
88
88
88
ENDCHAR
STARTCHAR 0128
ENCODING 296
SWIDTH 205 0
DWIDTH 2 0
BBX 2 7 0 0
BITMAP
40
00
80
80
80
80
80
ENDCHAR
STARTCHAR 0129
ENCODING 297
SWIDTH 205 0
DWIDTH 2 0
BBX 2 6 0 0
BITMAP
80
40
00
80
80
80
ENDCHAR
STARTCHAR 012A
ENCODING 298
SWIDTH 205 0
DWIDTH 2 0
BBX 1 5 0 2
BITMAP
80
80
80
80
80
ENDCHAR
STARTCHAR 012B
ENCODING 299
SWIDTH 205 0
DWIDTH 2 0
BBX 2 6 0 0
BITMAP
C0
00
00
80
80
80
ENDCHAR
STARTCHAR 012C
ENCODING 300
SWIDTH 205 0
DWIDTH 2 0
BBX 2 7 0 0
BITMAP
40
00
80
80
80
80
80
ENDCHAR
STARTCHAR 012D
ENCODING 301
SWIDTH 205 0
DWIDTH 2 0
BBX 1 3 0 3
BITMAP
80
80
80
ENDCHAR
STARTCHAR 012E
ENCODING 302
SWIDTH 205 0
DWIDTH 2 0
BBX 1 8 1 -1
BITMAP
80
80
80
80
80
00
00
80
ENDCHAR
STARTCHAR 012F
ENCODING 303
SWIDTH 205 0
DWIDTH 2 0
BBX 1 6 1 1
BITMAP
80
80
80
00
00
80
ENDCHAR
STARTCHAR 0130
ENCODING 304
SWIDTH 205 0
DWIDTH 2 0
BBX 1 5 1 2
BITMAP
80
80
80
80
80
ENDCHAR
STARTCHAR 0131
ENCODING 305
SWIDTH 205 0
DWIDTH 2 0
BBX 1 3 1 1
BITMAP
80
80
80
ENDCHAR
STARTCHAR 0132
ENCODING 306
SWIDTH 617 0
DWIDTH 6 0
BBX 5 6 1 1
BITMAP
88
88
08
08
10
F0
ENDCHAR
STARTCHAR 0133
ENCODING 307
SWIDTH 411 0
DWIDTH 4 0
BBX 3 9 1 -2
BITMAP
20
00
00
A0
A0
A0
20
20
20
ENDCHAR
STARTCHAR 0134
ENCODING 308
SWIDTH 411 0
DWIDTH 4 0
BBX 3 7 0 1
BITMAP
20
20
20
20
20
20
E0
ENDCHAR
STARTCHAR 0135
ENCODING 309
SWIDTH 205 0
DWIDTH 2 0
BBX 1 6 0 1
BITMAP
80
80
80
80
80
80
ENDCHAR
STARTCHAR 0136
ENCODING 310
SWIDTH 617 0
DWIDTH 6 0
BBX 5 9 1 -2
BITMAP
90
A0
C0
A0
90
08
00
20
20
ENDCHAR
STARTCHAR 0137
ENCODING 311
SWIDTH 514 0
DWIDTH 5 0
BBX 4 6 1 -2
BITMAP
80
90
E0
80
A0
10
ENDCHAR
STARTCHAR 0138
ENCODING 312
SWIDTH 514 0
DWIDTH 5 0
BBX 4 5 1 0
BITMAP
10
E0
80
A0
10
ENDCHAR
STARTCHAR 0139
ENCODING 313
SWIDTH 514 0
DWIDTH 5 0
BBX 4 6 1 2
BITMAP
80
80
80
80
80
70
ENDCHAR
STARTCHAR 013A
ENCODING 314
SWIDTH 205 0
DWIDTH 2 0
BBX 1 8 1 0
BITMAP
80
00
00
80
80
80
80
80
ENDCHAR
STARTCHAR 013B
ENCODING 315
SWIDTH 514 0
DWIDTH 5 0
BBX 4 9 1 -2
BITMAP
80
80
80
80
80
00
70
20
20
ENDCHAR
STARTCHAR 013C
ENCODING 316
SWIDTH 205 0
DWIDTH 2 0
BBX 1 5 1 -2
BITMAP
80
80
80
80
80
ENDCHAR
STARTCHAR 013D
ENCODING 317
SWIDTH 514 0
DWIDTH 5 0
BBX 4 7 1 0
BITMAP
10
90
80
80
80
80
70
ENDCHAR
STARTCHAR 013E
ENCODING 318
SWIDTH 205 0
DWIDTH 2 0
BBX 1 5 1 1
BITMAP
80
80
80
80
80
ENDCHAR
STARTCHAR 013F
ENCODING 319
SWIDTH 514 0
DWIDTH 5 0
BBX 4 6 1 1
BITMAP
80
80
80
80
80
70
ENDCHAR
STARTCHAR 0140
ENCODING 320
SWIDTH 205 0
DWIDTH 2 0
BBX 2 5 1 1
BITMAP
80
80
C0
80
80
ENDCHAR
STARTCHAR 0141
ENCODING 321
SWIDTH 514 0
DWIDTH 5 0
BBX 5 6 0 1
BITMAP
80
80
40
80
80
38
ENDCHAR
STARTCHAR 0142
ENCODING 322
SWIDTH 205 0
DWIDTH 2 0
BBX 2 5 0 1
BITMAP
80
80
40
80
80
ENDCHAR
STARTCHAR 0143
ENCODING 323
SWIDTH 720 0
DWIDTH 7 0
BBX 6 7 1 1
BITMAP
84
84
C4
A4
94
8C
04
ENDCHAR
STARTCHAR 0144
ENCODING 324
SWIDTH 617 0
DWIDTH 6 0
BBX 4 4 1 2
BITMAP
F0
90
90
90
ENDCHAR
STARTCHAR 0145
ENCODING 325
SWIDTH 720 0
DWIDTH 7 0
BBX 6 7 1 -3
BITMAP
84
84
C4
A4
94
8C
04
ENDCHAR
STARTCHAR 0146
ENCODING 326
SWIDTH 617 0
DWIDTH 6 0
BBX 4 7 1 -3
BITMAP
F0
90
90
90
00
00
20
ENDCHAR
STARTCHAR 0147
ENCODING 327
SWIDTH 720 0
DWIDTH 7 0
BBX 6 7 1 1
BITMAP
84
84
C4
A4
94
8C
04
ENDCHAR
STARTCHAR 0148
ENCODING 328
SWIDTH 617 0
DWIDTH 6 0
BBX 4 6 1 0
BITMAP
40
20
F0
90
90
90
ENDCHAR
STARTCHAR 0149
ENCODING 329
SWIDTH 617 0
DWIDTH 6 0
BBX 5 5 1 2
BITMAP
F0
88
88
88
80
ENDCHAR
STARTCHAR 014A
ENCODING 330
SWIDTH 720 0
DWIDTH 7 0
BBX 6 9 1 -2
BITMAP
84
84
C4
A4
94
8C
04
04
18
ENDCHAR
STARTCHAR 014B
ENCODING 331
SWIDTH 617 0
DWIDTH 6 0
BBX 4 7 1 -2
BITMAP
F0
90
90
90
10
10
10
ENDCHAR
STARTCHAR 014C
ENCODING 332
SWIDTH 822 0
DWIDTH 8 0
BBX 7 7 1 1
BITMAP
78
84
84
82
84
84
78
ENDCHAR
STARTCHAR 014D
ENCODING 333
SWIDTH 514 0
DWIDTH 5 0
BBX 4 7 1 0
BITMAP
60
00
F0
90
90
90
F0
ENDCHAR
STARTCHAR 014E
ENCODING 334
SWIDTH 822 0
DWIDTH 8 0
BBX 7 8 1 0
BITMAP
30
48
84
84
82
84
84
78
ENDCHAR
STARTCHAR 014F
ENCODING 335
SWIDTH 514 0
DWIDTH 5 0
BBX 4 5 1 2
BITMAP
F0
90
90
90
F0
ENDCHAR
STARTCHAR 0150
ENCODING 336
SWIDTH 822 0
DWIDTH 8 0
BBX 7 8 1 0
BITMAP
20
58
84
84
82
84
84
78
ENDCHAR
STARTCHAR 0151
ENCODING 337
SWIDTH 514 0
DWIDTH 5 0
BBX 4 5 1 2
BITMAP
F0
90
90
90
F0
ENDCHAR
STARTCHAR 0152
ENCODING 338
SWIDTH 1028 0
DWIDTH 10 0
BBX 9 7 1 0
BITMAP
3700
C800
8800
8780
8800
8800
7700
ENDCHAR
STARTCHAR 0153
ENCODING 339
SWIDTH 1028 0
DWIDTH 10 0
BBX 9 5 1 0
BITMAP
FF00
8880
9780
8800
FF00
ENDCHAR
STARTCHAR 0154
ENCODING 340
SWIDTH 617 0
DWIDTH 6 0
BBX 5 8 1 0
BITMAP
20
D0
88
88
88
F0
80
08
ENDCHAR
STARTCHAR 0155
ENCODING 341
SWIDTH 308 0
DWIDTH 3 0
BBX 1 3 1 3
BITMAP
80
80
80
ENDCHAR
STARTCHAR 0156
ENCODING 342
SWIDTH 617 0
DWIDTH 6 0
BBX 5 10 1 -3
BITMAP
F0
88
88
88
F0
80
08
00
20
20
ENDCHAR
STARTCHAR 0157
ENCODING 343
SWIDTH 308 0
DWIDTH 3 0
BBX 1 3 1 -2
BITMAP
80
80
80
ENDCHAR
STARTCHAR 0158
ENCODING 344
SWIDTH 617 0
DWIDTH 6 0
BBX 5 8 1 0
BITMAP
20
D0
88
88
88
F0
80
08
ENDCHAR
STARTCHAR 0159
ENCODING 345
SWIDTH 308 0
DWIDTH 3 0
BBX 2 6 1 0
BITMAP
80
40
00
80
80
80
ENDCHAR
STARTCHAR 015A
ENCODING 346
SWIDTH 514 0
DWIDTH 5 0
BBX 4 7 1 1
BITMAP
F0
80
80
40
30
10
70
ENDCHAR
STARTCHAR 015B
ENCODING 347
SWIDTH 411 0
DWIDTH 4 0
BBX 4 5 0 2
BITMAP
E0
80
60
10
F0
ENDCHAR
STARTCHAR 015C
ENCODING 348
SWIDTH 514 0
DWIDTH 5 0
BBX 4 7 1 1
BITMAP
F0
80
80
40
30
10
70
ENDCHAR
STARTCHAR 015D
ENCODING 349
SWIDTH 411 0
DWIDTH 4 0
BBX 4 7 0 0
BITMAP
20
00
E0
80
60
10
F0
ENDCHAR
STARTCHAR 015E
ENCODING 350
SWIDTH 514 0
DWIDTH 5 0
BBX 4 9 1 -2
BITMAP
F0
80
80
40
30
10
10
60
20
ENDCHAR
STARTCHAR 015F
ENCODING 351
SWIDTH 411 0
DWIDTH 4 0
BBX 4 7 0 -2
BITMAP
E0
80
60
10
90
60
20
ENDCHAR
STARTCHAR 0160
ENCODING 352
SWIDTH 514 0
DWIDTH 5 0
BBX 4 7 1 1
BITMAP
F0
80
80
40
30
10
70
ENDCHAR
STARTCHAR 0161
ENCODING 353
SWIDTH 411 0
DWIDTH 4 0
BBX 4 7 0 0
BITMAP
40
20
E0
80
60
10
F0
ENDCHAR
STARTCHAR 0162
ENCODING 354
SWIDTH 514 0
DWIDTH 5 0
BBX 3 8 1 -2
BITMAP
E0
40
40
40
40
40
00
40
ENDCHAR
STARTCHAR 0163
ENCODING 355
SWIDTH 308 0
DWIDTH 3 0
BBX 3 7 0 -1
BITMAP
C0
80
80
80
40
00
20
ENDCHAR
STARTCHAR 0164
ENCODING 356
SWIDTH 514 0
DWIDTH 5 0
BBX 3 7 1 0
BITMAP
40
A0
40
40
40
40
40
ENDCHAR
STARTCHAR 0165
ENCODING 357
SWIDTH 308 0
DWIDTH 3 0
BBX 3 7 0 0
BITMAP
20
00
C0
80
80
80
40
ENDCHAR
STARTCHAR 0166
ENCODING 358
SWIDTH 514 0
DWIDTH 5 0
BBX 3 6 1 0
BITMAP
E0
40
40
E0
40
40
ENDCHAR
STARTCHAR 0167
ENCODING 359
SWIDTH 308 0
DWIDTH 3 0
BBX 2 5 0 1
BITMAP
C0
80
C0
80
40
ENDCHAR
STARTCHAR 0168
ENCODING 360
SWIDTH 720 0
DWIDTH 7 0
BBX 5 8 1 0
BITMAP
10
00
88
88
88
88
88
F8
ENDCHAR
STARTCHAR 0169
ENCODING 361
SWIDTH 617 0
DWIDTH 6 0
BBX 4 7 1 0
BITMAP
40
20
00
90
90
90
F0
ENDCHAR
STARTCHAR 016A
ENCODING 362
SWIDTH 720 0
DWIDTH 7 0
BBX 5 6 1 2
BITMAP
88
88
88
88
88
F8
ENDCHAR
STARTCHAR 016B
ENCODING 363
SWIDTH 617 0
DWIDTH 6 0
BBX 4 7 1 0
BITMAP
70
00
00
90
90
90
F0
ENDCHAR
STARTCHAR 016C
ENCODING 364
SWIDTH 720 0
DWIDTH 7 0
BBX 5 8 1 0
BITMAP
30
00
88
88
88
88
88
F8
ENDCHAR
STARTCHAR 016D
ENCODING 365
SWIDTH 617 0
DWIDTH 6 0
BBX 4 4 1 3
BITMAP
90
90
90
F0
ENDCHAR
STARTCHAR 016E
ENCODING 366
SWIDTH 720 0
DWIDTH 7 0
BBX 5 9 1 0
BITMAP
70
20
00
88
88
88
88
88
F8
ENDCHAR
STARTCHAR 016F
ENCODING 367
SWIDTH 617 0
DWIDTH 6 0
BBX 4 8 1 0
BITMAP
20
60
00
00
90
90
90
F0
ENDCHAR
STARTCHAR 0170
ENCODING 368
SWIDTH 720 0
DWIDTH 7 0
BBX 5 6 1 2
BITMAP
88
88
88
88
88
F8
ENDCHAR
STARTCHAR 0171
ENCODING 369
SWIDTH 617 0
DWIDTH 6 0
BBX 4 7 1 0
BITMAP
10
00
00
90
90
90
F0
ENDCHAR
STARTCHAR 0172
ENCODING 370
SWIDTH 720 0
DWIDTH 7 0
BBX 5 8 1 -1
BITMAP
88
88
88
88
88
88
70
20
ENDCHAR
STARTCHAR 0173
ENCODING 371
SWIDTH 617 0
DWIDTH 6 0
BBX 4 6 1 -1
BITMAP
90
90
90
90
60
30
ENDCHAR
STARTCHAR 0174
ENCODING 372
SWIDTH 1028 0
DWIDTH 10 0
BBX 10 8 0 0
BITMAP
0400
0800
8C40
8C80
5480
5280
6300
2100
ENDCHAR
STARTCHAR 0175
ENCODING 373
SWIDTH 822 0
DWIDTH 8 0
BBX 8 7 0 0
BITMAP
18
00
90
9B
AA
66
44
ENDCHAR
STARTCHAR 0176
ENCODING 374
SWIDTH 514 0
DWIDTH 5 0
BBX 6 6 0 1
BITMAP
84
88
50
50
20
20
ENDCHAR
STARTCHAR 0177
ENCODING 375
SWIDTH 411 0
DWIDTH 4 0
BBX 5 9 0 -2
BITMAP
20
00
88
90
90
60
20
40
40
ENDCHAR
STARTCHAR 0178
ENCODING 376
SWIDTH 514 0
DWIDTH 5 0
BBX 6 6 0 1
BITMAP
84
88
50
50
20
20
ENDCHAR
STARTCHAR 0179
ENCODING 377
SWIDTH 617 0
DWIDTH 6 0
BBX 6 7 0 1
BITMAP
3C
08
10
20
20
40
F8
ENDCHAR
STARTCHAR 017A
ENCODING 378
SWIDTH 411 0
DWIDTH 4 0
BBX 4 5 0 2
BITMAP
70
30
40
40
E0
ENDCHAR
STARTCHAR 017B
ENCODING 379
SWIDTH 617 0
DWIDTH 6 0
BBX 6 7 0 1
BITMAP
3C
08
10
20
20
40
F8
ENDCHAR
STARTCHAR 017C
ENCODING 380
SWIDTH 411 0
DWIDTH 4 0
BBX 4 7 0 0
BITMAP
20
00
70
30
40
40
E0
ENDCHAR
STARTCHAR 017D
ENCODING 381
SWIDTH 617 0
DWIDTH 6 0
BBX 6 8 0 0
BITMAP
10
3C
08
10
20
20
40
F8
ENDCHAR
STARTCHAR 017E
ENCODING 382
SWIDTH 411 0
DWIDTH 4 0
BBX 4 6 0 1
BITMAP
20
70
30
40
40
E0
ENDCHAR
STARTCHAR 017F
ENCODING 383
SWIDTH 205 0
DWIDTH 2 0
BBX 2 7 1 0
BITMAP
C0
80
80
80
80
80
80
ENDCHAR
STARTCHAR 018F
ENCODING 399
SWIDTH 720 0
DWIDTH 7 0
BBX 6 7 1 0
BITMAP
70
0C
04
FC
84
84
F8
ENDCHAR
STARTCHAR 0192
ENCODING 402
SWIDTH 411 0
DWIDTH 4 0
BBX 3 9 0 -2
BITMAP
20
40
60
40
40
40
40
80
80
ENDCHAR
STARTCHAR 01A0
ENCODING 416
SWIDTH 822 0
DWIDTH 8 0
BBX 7 7 1 1
BITMAP
78
84
84
82
84
84
78
ENDCHAR
STARTCHAR 01A1
ENCODING 417
SWIDTH 514 0
DWIDTH 5 0
BBX 4 5 1 1
BITMAP
F0
90
90
90
F0
ENDCHAR
STARTCHAR 01AF
ENCODING 431
SWIDTH 720 0
DWIDTH 7 0
BBX 5 6 1 2
BITMAP
88
88
88
88
88
F8
ENDCHAR
STARTCHAR 01B0
ENCODING 432
SWIDTH 617 0
DWIDTH 6 0
BBX 4 4 1 2
BITMAP
90
90
90
F0
ENDCHAR
STARTCHAR 01B7
ENCODING 439
SWIDTH 514 0
DWIDTH 5 0
BBX 4 7 1 0
BITMAP
70
30
40
20
10
10
F0
ENDCHAR
STARTCHAR 01C4
ENCODING 452
SWIDTH 1440 0
DWIDTH 14 0
BBX 12 7 1 1
BITMAP
F0F0
8C10
8420
8440
8480
8480
F9F0
ENDCHAR
STARTCHAR 01C5
ENCODING 453
SWIDTH 1234 0
DWIDTH 12 0
BBX 11 7 1 0
BITMAP
F000
8C40
8460
8460
8480
8480
F9C0
ENDCHAR
STARTCHAR 01C6
ENCODING 454
SWIDTH 1131 0
DWIDTH 11 0
BBX 10 7 1 0
BITMAP
0080
1000
F1C0
9080
9100
9200
E380
ENDCHAR
STARTCHAR 01C7
ENCODING 455
SWIDTH 1028 0
DWIDTH 10 0
BBX 8 7 1 0
BITMAP
03
81
81
81
81
81
73
ENDCHAR
STARTCHAR 01C8
ENCODING 456
SWIDTH 822 0
DWIDTH 8 0
BBX 6 8 1 -1
BITMAP
80
80
84
84
84
04
74
04
ENDCHAR
STARTCHAR 01C9
ENCODING 457
SWIDTH 411 0
DWIDTH 4 0
BBX 3 9 1 -2
BITMAP
20
80
80
A0
A0
A0
20
20
20
ENDCHAR
STARTCHAR 01CA
ENCODING 458
SWIDTH 1234 0
DWIDTH 12 0
BBX 10 7 1 0
BITMAP
8440
8440
C440
A440
9440
8C40
05C0
ENDCHAR
STARTCHAR 01CB
ENCODING 459
SWIDTH 1028 0
DWIDTH 10 0
BBX 8 9 1 -2
BITMAP
84
84
C4
A5
95
8D
05
01
01
ENDCHAR
STARTCHAR 01CC
ENCODING 460
SWIDTH 822 0
DWIDTH 8 0
BBX 7 7 1 0
BITMAP
F0
92
92
92
02
02
02
ENDCHAR
STARTCHAR 01CD
ENCODING 461
SWIDTH 617 0
DWIDTH 6 0
BBX 6 8 0 0
BITMAP
10
10
30
48
48
88
B4
80
ENDCHAR
STARTCHAR 01CE
ENCODING 462
SWIDTH 514 0
DWIDTH 5 0
BBX 4 6 1 1
BITMAP
40
60
10
D0
90
D0
ENDCHAR
STARTCHAR 01D3
ENCODING 467
SWIDTH 720 0
DWIDTH 7 0
BBX 5 6 1 2
BITMAP
88
88
88
88
88
F8
ENDCHAR
STARTCHAR 01D4
ENCODING 468
SWIDTH 617 0
DWIDTH 6 0
BBX 4 7 1 0
BITMAP
40
20
00
90
90
90
F0
ENDCHAR
STARTCHAR 01E4
ENCODING 484
SWIDTH 720 0
DWIDTH 7 0
BBX 6 7 1 0
BITMAP
78
80
80
80
80
8C
70
ENDCHAR
STARTCHAR 01E5
ENCODING 485
SWIDTH 617 0
DWIDTH 6 0
BBX 5 7 1 -2
BITMAP
F0
90
90
90
B0
78
F0
ENDCHAR
STARTCHAR 01E6
ENCODING 486
SWIDTH 720 0
DWIDTH 7 0
BBX 5 7 1 1
BITMAP
78
80
80
80
80
80
70
ENDCHAR
STARTCHAR 01E7
ENCODING 487
SWIDTH 617 0
DWIDTH 6 0
BBX 4 9 1 -2
BITMAP
40
00
F0
90
90
90
B0
50
F0
ENDCHAR
STARTCHAR 01E8
ENCODING 488
SWIDTH 617 0
DWIDTH 6 0
BBX 5 8 1 0
BITMAP
20
00
90
A0
C0
A0
90
08
ENDCHAR
STARTCHAR 01E9
ENCODING 489
SWIDTH 514 0
DWIDTH 5 0
BBX 5 8 0 1
BITMAP
40
00
80
88
B0
C0
90
08
ENDCHAR
STARTCHAR 01EA
ENCODING 490
SWIDTH 822 0
DWIDTH 8 0
BBX 7 9 1 -2
BITMAP
78
84
84
82
84
84
40
38
60
ENDCHAR
STARTCHAR 01EB
ENCODING 491
SWIDTH 514 0
DWIDTH 5 0
BBX 4 7 1 -2
BITMAP
F0
90
90
90
80
60
40
ENDCHAR
STARTCHAR 01EE
ENCODING 494
SWIDTH 514 0
DWIDTH 5 0
BBX 4 8 1 0
BITMAP
40
30
30
40
20
10
10
F0
ENDCHAR
STARTCHAR 01EF
ENCODING 495
SWIDTH 411 0
DWIDTH 4 0
BBX 4 9 0 -2
BITMAP
40
00
70
30
40
30
10
10
F0
ENDCHAR
STARTCHAR 01FA
ENCODING 506
SWIDTH 617 0
DWIDTH 6 0
BBX 6 9 0 1
BITMAP
30
00
10
30
48
48
88
B4
80
ENDCHAR
STARTCHAR 01FB
ENCODING 507
SWIDTH 514 0
DWIDTH 5 0
BBX 4 8 1 0
BITMAP
60
A0
40
60
10
D0
90
D0
ENDCHAR
STARTCHAR 01FC
ENCODING 508
SWIDTH 925 0
DWIDTH 9 0
BBX 9 8 0 0
BITMAP
0800
0700
1800
2800
2780
4800
B800
8700
ENDCHAR
STARTCHAR 01FD
ENCODING 509
SWIDTH 925 0
DWIDTH 9 0
BBX 8 5 1 2
BITMAP
7E
11
DF
B0
EE
ENDCHAR
STARTCHAR 01FE
ENCODING 510
SWIDTH 822 0
DWIDTH 8 0
BBX 7 8 1 0
BITMAP
78
8C
94
A2
A4
C4
48
30
ENDCHAR
STARTCHAR 01FF
ENCODING 511
SWIDTH 514 0
DWIDTH 5 0
BBX 4 8 1 -1
BITMAP
20
00
F0
B0
D0
90
90
60
ENDCHAR
STARTCHAR 0200
ENCODING 512
SWIDTH 617 0
DWIDTH 6 0
BBX 6 8 0 0
BITMAP
20
10
30
48
48
88
B4
80
ENDCHAR
STARTCHAR 0201
ENCODING 513
SWIDTH 514 0
DWIDTH 5 0
BBX 4 7 1 0
BITMAP
80
00
60
10
D0
90
D0
ENDCHAR
STARTCHAR 0202
ENCODING 514
SWIDTH 617 0
DWIDTH 6 0
BBX 6 8 0 0
BITMAP
18
10
30
48
48
88
B4
80
ENDCHAR
STARTCHAR 0203
ENCODING 515
SWIDTH 514 0
DWIDTH 5 0
BBX 4 7 1 0
BITMAP
40
00
60
10
D0
90
D0
ENDCHAR
STARTCHAR 0204
ENCODING 516
SWIDTH 617 0
DWIDTH 6 0
BBX 4 7 1 1
BITMAP
F0
80
80
F0
80
80
F0
ENDCHAR
STARTCHAR 0205
ENCODING 517
SWIDTH 514 0
DWIDTH 5 0
BBX 4 7 1 0
BITMAP
80
00
E0
90
F0
80
F0
ENDCHAR
STARTCHAR 0206
ENCODING 518
SWIDTH 617 0
DWIDTH 6 0
BBX 4 8 1 0
BITMAP
20
F0
80
80
F0
80
80
F0
ENDCHAR
STARTCHAR 0207
ENCODING 519
SWIDTH 514 0
DWIDTH 5 0
BBX 4 5 1 2
BITMAP
E0
90
F0
80
F0
ENDCHAR
STARTCHAR 0208
ENCODING 520
SWIDTH 205 0
DWIDTH 2 0
BBX 1 7 0 0
BITMAP
80
00
80
80
80
80
80
ENDCHAR
STARTCHAR 0209
ENCODING 521
SWIDTH 205 0
DWIDTH 2 0
BBX 1 3 0 3
BITMAP
80
80
80
ENDCHAR
STARTCHAR 020A
ENCODING 522
SWIDTH 205 0
DWIDTH 2 0
BBX 3 7 0 0
BITMAP
60
00
80
80
80
80
80
ENDCHAR
STARTCHAR 020B
ENCODING 523
SWIDTH 205 0
DWIDTH 2 0
BBX 1 6 0 0
BITMAP
80
00
00
80
80
80
ENDCHAR
STARTCHAR 020C
ENCODING 524
SWIDTH 822 0
DWIDTH 8 0
BBX 7 8 1 0
BITMAP
10
68
84
84
82
84
84
78
ENDCHAR
STARTCHAR 020D
ENCODING 525
SWIDTH 514 0
DWIDTH 5 0
BBX 4 6 1 1
BITMAP
20
F0
90
90
90
F0
ENDCHAR
STARTCHAR 020E
ENCODING 526
SWIDTH 822 0
DWIDTH 8 0
BBX 7 7 1 1
BITMAP
78
84
84
82
84
84
78
ENDCHAR
STARTCHAR 020F
ENCODING 527
SWIDTH 514 0
DWIDTH 5 0
BBX 4 5 1 2
BITMAP
F0
90
90
90
F0
ENDCHAR
STARTCHAR 0210
ENCODING 528
SWIDTH 617 0
DWIDTH 6 0
BBX 5 7 1 1
BITMAP
F0
88
88
88
F0
80
08
ENDCHAR
STARTCHAR 0211
ENCODING 529
SWIDTH 308 0
DWIDTH 3 0
BBX 1 3 0 3
BITMAP
80
80
80
ENDCHAR
STARTCHAR 0212
ENCODING 530
SWIDTH 617 0
DWIDTH 6 0
BBX 5 8 1 0
BITMAP
20
F0
88
88
88
F0
80
08
ENDCHAR
STARTCHAR 0213
ENCODING 531
SWIDTH 308 0
DWIDTH 3 0
BBX 2 6 1 0
BITMAP
40
00
00
80
80
80
ENDCHAR
STARTCHAR 0214
ENCODING 532
SWIDTH 720 0
DWIDTH 7 0
BBX 5 8 1 0
BITMAP
10
00
88
88
88
88
88
F8
ENDCHAR
STARTCHAR 0215
ENCODING 533
SWIDTH 617 0
DWIDTH 6 0
BBX 4 4 1 3
BITMAP
90
90
90
F0
ENDCHAR
STARTCHAR 0216
ENCODING 534
SWIDTH 720 0
DWIDTH 7 0
BBX 5 6 1 2
BITMAP
88
88
88
88
88
F8
ENDCHAR
STARTCHAR 0217
ENCODING 535
SWIDTH 617 0
DWIDTH 6 0
BBX 4 4 1 3
BITMAP
90
90
90
F0
ENDCHAR
STARTCHAR 0218
ENCODING 536
SWIDTH 514 0
DWIDTH 5 0
BBX 4 8 1 -3
BITMAP
F0
80
80
40
30
10
10
60
ENDCHAR
STARTCHAR 0219
ENCODING 537
SWIDTH 411 0
DWIDTH 4 0
BBX 4 7 0 -3
BITMAP
E0
80
60
10
90
60
20
ENDCHAR
STARTCHAR 021A
ENCODING 538
SWIDTH 514 0
DWIDTH 5 0
BBX 3 10 1 -3
BITMAP
E0
40
40
40
40
40
00
00
40
40
ENDCHAR
STARTCHAR 021B
ENCODING 539
SWIDTH 308 0
DWIDTH 3 0
BBX 3 7 0 -2
BITMAP
C0
80
80
80
40
00
20
ENDCHAR
STARTCHAR 021E
ENCODING 542
SWIDTH 720 0
DWIDTH 7 0
BBX 6 7 1 1
BITMAP
04
84
84
FC
84
84
04
ENDCHAR
STARTCHAR 021F
ENCODING 543
SWIDTH 617 0
DWIDTH 6 0
BBX 5 7 0 1
BITMAP
40
00
80
F8
88
88
88
ENDCHAR
STARTCHAR 022A
ENCODING 554
SWIDTH 822 0
DWIDTH 8 0
BBX 7 7 1 2
BITMAP
78
84
84
82
84
84
78
ENDCHAR
STARTCHAR 022B
ENCODING 555
SWIDTH 514 0
DWIDTH 5 0
BBX 4 5 1 2
BITMAP
F0
90
90
90
F0
ENDCHAR
STARTCHAR 022C
ENCODING 556
SWIDTH 822 0
DWIDTH 8 0
BBX 7 8 1 1
BITMAP
10
78
84
84
82
84
84
78
ENDCHAR
STARTCHAR 022D
ENCODING 557
SWIDTH 514 0
DWIDTH 5 0
BBX 4 7 1 0
BITMAP
40
20
F0
90
90
90
F0
ENDCHAR
STARTCHAR 0230
ENCODING 560
SWIDTH 822 0
DWIDTH 8 0
BBX 7 7 1 2
BITMAP
78
84
84
82
84
84
78
ENDCHAR
STARTCHAR 0231
ENCODING 561
SWIDTH 514 0
DWIDTH 5 0
BBX 4 5 1 2
BITMAP
F0
90
90
90
F0
ENDCHAR
STARTCHAR 0232
ENCODING 562
SWIDTH 514 0
DWIDTH 5 0
BBX 6 6 0 1
BITMAP
84
88
50
50
20
20
ENDCHAR
STARTCHAR 0233
ENCODING 563
SWIDTH 411 0
DWIDTH 4 0
BBX 5 9 0 -2
BITMAP
70
00
88
90
90
60
20
40
40
ENDCHAR
STARTCHAR 0237
ENCODING 567
SWIDTH 205 0
DWIDTH 2 0
BBX 1 6 0 -1
BITMAP
80
80
80
80
80
80
ENDCHAR
STARTCHAR 0259
ENCODING 601
SWIDTH 514 0
DWIDTH 5 0
BBX 4 5 1 0
BITMAP
60
10
F0
90
E0
ENDCHAR
STARTCHAR 0292
ENCODING 658
SWIDTH 411 0
DWIDTH 4 0
BBX 4 7 0 -2
BITMAP
70
30
40
30
10
10
F0
ENDCHAR
STARTCHAR 02B9
ENCODING 697
SWIDTH 102 0
DWIDTH 1 0
BBX 1 1 0 5
BITMAP
80
ENDCHAR
STARTCHAR 02BA
ENCODING 698
SWIDTH 308 0
DWIDTH 3 0
BBX 1 1 1 5
BITMAP
80
ENDCHAR
STARTCHAR 02BB
ENCODING 699
SWIDTH 205 0
DWIDTH 2 0
BBX 0 0 1 6
BITMAP
ENDCHAR
STARTCHAR 02BC
ENCODING 700
SWIDTH 102 0
DWIDTH 1 0
BBX 0 0 0 5
BITMAP
ENDCHAR
STARTCHAR 02BE
ENCODING 702
SWIDTH 514 0
DWIDTH 5 0
BBX 0 0 3 6
BITMAP
ENDCHAR
STARTCHAR 02BF
ENCODING 703
SWIDTH 514 0
DWIDTH 5 0
BBX 0 0 2 6
BITMAP
ENDCHAR
STARTCHAR 02C6
ENCODING 710
SWIDTH 514 0
DWIDTH 5 0
BBX 2 1 2 6
BITMAP
C0
ENDCHAR
STARTCHAR 02C7
ENCODING 711
SWIDTH 514 0
DWIDTH 5 0
BBX 1 1 3 6
BITMAP
80
ENDCHAR
STARTCHAR 02C8
ENCODING 712
SWIDTH 102 0
DWIDTH 1 0
BBX 0 0 0 5
BITMAP
ENDCHAR
STARTCHAR 02C9
ENCODING 713
SWIDTH 514 0
DWIDTH 5 0
BBX 2 1 2 6
BITMAP
C0
ENDCHAR
STARTCHAR 02CA
ENCODING 714
SWIDTH 514 0
DWIDTH 5 0
BBX 1 1 3 6
BITMAP
80
ENDCHAR
STARTCHAR 02CB
ENCODING 715
SWIDTH 514 0
DWIDTH 5 0
BBX 1 1 2 6
BITMAP
80
ENDCHAR
STARTCHAR 02CC
ENCODING 716
SWIDTH 102 0
DWIDTH 1 0
BBX 0 0 0 -2
BITMAP
ENDCHAR
STARTCHAR 02D8
ENCODING 728
SWIDTH 514 0
DWIDTH 5 0
BBX 0 0 2 6
BITMAP
ENDCHAR
STARTCHAR 02D9
ENCODING 729
SWIDTH 514 0
DWIDTH 5 0
BBX 0 0 2 6
BITMAP
ENDCHAR
STARTCHAR 02DA
ENCODING 730
SWIDTH 514 0
DWIDTH 5 0
BBX 2 1 2 7
BITMAP
C0
ENDCHAR
STARTCHAR 02DB
ENCODING 731
SWIDTH 514 0
DWIDTH 5 0
BBX 1 1 1 -1
BITMAP
80
ENDCHAR
STARTCHAR 02DC
ENCODING 732
SWIDTH 514 0
DWIDTH 5 0
BBX 2 1 2 6
BITMAP
C0
ENDCHAR
STARTCHAR 02DD
ENCODING 733
SWIDTH 514 0
DWIDTH 5 0
BBX 0 0 2 6
BITMAP
ENDCHAR
STARTCHAR 0300
ENCODING 768
SWIDTH 0 0
DWIDTH 0 0
BBX 1 1 2 6
BITMAP
80
ENDCHAR
STARTCHAR 0301
ENCODING 769
SWIDTH 0 0
DWIDTH 0 0
BBX 1 1 3 6
BITMAP
80
ENDCHAR
STARTCHAR 0302
ENCODING 770
SWIDTH 0 0
DWIDTH 0 0
BBX 2 1 2 6
BITMAP
C0
ENDCHAR
STARTCHAR 0303
ENCODING 771
SWIDTH 0 0
DWIDTH 0 0
BBX 2 1 2 6
BITMAP
C0
ENDCHAR
STARTCHAR 0304
ENCODING 772
SWIDTH 0 0
DWIDTH 0 0
BBX 2 1 2 6
BITMAP
C0
ENDCHAR
STARTCHAR 0306
ENCODING 774
SWIDTH 0 0
DWIDTH 0 0
BBX 0 0 2 6
BITMAP
ENDCHAR
STARTCHAR 0307
ENCODING 775
SWIDTH 0 0
DWIDTH 0 0
BBX 0 0 2 6
BITMAP
ENDCHAR
STARTCHAR 0308
ENCODING 776
SWIDTH 0 0
DWIDTH 0 0
BBX 1 1 3 6
BITMAP
80
ENDCHAR
STARTCHAR 0309
ENCODING 777
SWIDTH 0 0
DWIDTH 0 0
BBX 1 1 3 6
BITMAP
80
ENDCHAR
STARTCHAR 030A
ENCODING 778
SWIDTH 0 0
DWIDTH 0 0
BBX 2 1 2 7
BITMAP
C0
ENDCHAR
STARTCHAR 030B
ENCODING 779
SWIDTH 0 0
DWIDTH 0 0
BBX 0 0 2 6
BITMAP
ENDCHAR
STARTCHAR 030C
ENCODING 780
SWIDTH 0 0
DWIDTH 0 0
BBX 1 1 3 6
BITMAP
80
ENDCHAR
STARTCHAR 030F
ENCODING 783
SWIDTH 0 0
DWIDTH 0 0
BBX 1 1 1 6
BITMAP
80
ENDCHAR
STARTCHAR 0311
ENCODING 785
SWIDTH 0 0
DWIDTH 0 0
BBX 0 0 2 6
BITMAP
ENDCHAR
STARTCHAR 0312
ENCODING 786
SWIDTH 0 0
DWIDTH 0 0
BBX 0 0 2 6
BITMAP
ENDCHAR
STARTCHAR 031B
ENCODING 795
SWIDTH 0 0
DWIDTH 0 0
BBX 0 0 3 5
BITMAP
ENDCHAR
STARTCHAR 0323
ENCODING 803
SWIDTH 0 0
DWIDTH 0 0
BBX 0 0 2 -2
BITMAP
ENDCHAR
STARTCHAR 0324
ENCODING 804
SWIDTH 0 0
DWIDTH 0 0
BBX 1 1 3 -2
BITMAP
80
ENDCHAR
STARTCHAR 0326
ENCODING 806
SWIDTH 0 0
DWIDTH 0 0
BBX 0 0 2 -3
BITMAP
ENDCHAR
STARTCHAR 0327
ENCODING 807
SWIDTH 0 0
DWIDTH 0 0
BBX 1 1 3 -1
BITMAP
80
ENDCHAR
STARTCHAR 0328
ENCODING 808
SWIDTH 0 0
DWIDTH 0 0
BBX 1 1 1 -1
BITMAP
80
ENDCHAR
STARTCHAR 032E
ENCODING 814
SWIDTH 0 0
DWIDTH 0 0
BBX 0 0 2 -2
BITMAP
ENDCHAR
STARTCHAR 0331
ENCODING 817
SWIDTH 0 0
DWIDTH 0 0
BBX 2 1 2 -2
BITMAP
C0
ENDCHAR
STARTCHAR 0335
ENCODING 821
SWIDTH 0 0
DWIDTH 0 0
BBX 2 1 2 4
BITMAP
C0
ENDCHAR
STARTCHAR 0336
ENCODING 822
SWIDTH 0 0
DWIDTH 0 0
BBX 6 1 1 4
BITMAP
FC
ENDCHAR
STARTCHAR 0337
ENCODING 823
SWIDTH 0 0
DWIDTH 0 0
BBX 0 0 0 3
BITMAP
ENDCHAR
STARTCHAR 0338
ENCODING 824
SWIDTH 0 0
DWIDTH 0 0
BBX 3 5 1 0
BITMAP
20
20
40
80
80
ENDCHAR
STARTCHAR 0394
ENCODING 916
SWIDTH 617 0
DWIDTH 6 0
BBX 6 7 0 0
BITMAP
10
30
48
48
88
84
FC
ENDCHAR
STARTCHAR 03A9
ENCODING 937
SWIDTH 822 0
DWIDTH 8 0
BBX 8 7 0 0
BITMAP
3C
42
81
81
81
42
63
ENDCHAR
STARTCHAR 03BC
ENCODING 956
SWIDTH 617 0
DWIDTH 6 0
BBX 4 5 1 -1
BITMAP
90
90
90
90
E0
ENDCHAR
STARTCHAR 03C0
ENCODING 960
SWIDTH 617 0
DWIDTH 6 0
BBX 6 4 0 0
BITMAP
FC
48
48
48
ENDCHAR
STARTCHAR 0400
ENCODING 1024
SWIDTH 617 0
DWIDTH 6 0
BBX 4 8 1 0
BITMAP
20
D0
80
80
F0
80
80
F0
ENDCHAR
STARTCHAR 0401
ENCODING 1025
SWIDTH 617 0
DWIDTH 6 0
BBX 4 7 1 1
BITMAP
F0
80
80
F0
80
80
F0
ENDCHAR
STARTCHAR 0402
ENCODING 1026
SWIDTH 720 0
DWIDTH 7 0
BBX 6 7 1 0
BITMAP
E0
40
40
5C
44
44
0C
ENDCHAR
STARTCHAR 0403
ENCODING 1027
SWIDTH 514 0
DWIDTH 5 0
BBX 3 7 1 1
BITMAP
E0
80
80
80
80
80
80
ENDCHAR
STARTCHAR 0404
ENCODING 1028
SWIDTH 617 0
DWIDTH 6 0
BBX 5 7 1 0
BITMAP
78
80
80
80
E0
80
70
ENDCHAR
STARTCHAR 0405
ENCODING 1029
SWIDTH 514 0
DWIDTH 5 0
BBX 4 7 1 0
BITMAP
F0
80
80
40
30
10
70
ENDCHAR
STARTCHAR 0406
ENCODING 1030
SWIDTH 205 0
DWIDTH 2 0
BBX 1 7 1 0
BITMAP
80
80
80
80
80
80
80
ENDCHAR
STARTCHAR 0407
ENCODING 1031
SWIDTH 205 0
DWIDTH 2 0
BBX 1 5 0 2
BITMAP
80
80
80
80
80
ENDCHAR
STARTCHAR 0408
ENCODING 1032
SWIDTH 411 0
DWIDTH 4 0
BBX 3 7 1 0
BITMAP
60
20
20
20
20
20
C0
ENDCHAR
STARTCHAR 0409
ENCODING 1033
SWIDTH 1131 0
DWIDTH 11 0
BBX 10 7 1 0
BITMAP
F800
8800
8800
8FC0
8840
8840
0F80
ENDCHAR
STARTCHAR 040A
ENCODING 1034
SWIDTH 1131 0
DWIDTH 11 0
BBX 10 7 1 0
BITMAP
8400
8400
8400
FF80
8440
8440
8780
ENDCHAR
STARTCHAR 040B
ENCODING 1035
SWIDTH 822 0
DWIDTH 8 0
BBX 6 6 1 0
BITMAP
E0
40
40
7C
44
44
ENDCHAR
STARTCHAR 040C
ENCODING 1036
SWIDTH 617 0
DWIDTH 6 0
BBX 5 7 1 1
BITMAP
80
90
A0
C0
A0
90
88
ENDCHAR
STARTCHAR 040D
ENCODING 1037
SWIDTH 822 0
DWIDTH 8 0
BBX 6 7 1 1
BITMAP
84
84
9C
A4
C4
C4
84
ENDCHAR
STARTCHAR 040E
ENCODING 1038
SWIDTH 617 0
DWIDTH 6 0
BBX 5 8 0 0
BITMAP
30
80
88
48
50
30
20
60
ENDCHAR
STARTCHAR 040F
ENCODING 1039
SWIDTH 720 0
DWIDTH 7 0
BBX 5 8 1 -2
BITMAP
80
88
88
88
88
88
88
70
ENDCHAR
STARTCHAR 0410
ENCODING 1040
SWIDTH 617 0
DWIDTH 6 0
BBX 7 7 0 0
BITMAP
30
30
28
48
44
BC
82
ENDCHAR
STARTCHAR 0411
ENCODING 1041
SWIDTH 617 0
DWIDTH 6 0
BBX 5 7 1 0
BITMAP
F0
80
80
F8
88
88
F8
ENDCHAR
STARTCHAR 0412
ENCODING 1042
SWIDTH 720 0
DWIDTH 7 0
BBX 5 7 1 0
BITMAP
F0
88
88
F0
88
88
F8
ENDCHAR
STARTCHAR 0413
ENCODING 1043
SWIDTH 514 0
DWIDTH 5 0
BBX 3 7 1 0
BITMAP
E0
80
80
80
80
80
80
ENDCHAR
STARTCHAR 0414
ENCODING 1044
SWIDTH 720 0
DWIDTH 7 0
BBX 7 8 0 -2
BITMAP
7C
44
44
44
44
44
00
FE
ENDCHAR
STARTCHAR 0415
ENCODING 1045
SWIDTH 617 0
DWIDTH 6 0
BBX 4 7 1 0
BITMAP
F0
80
80
F0
80
80
F0
ENDCHAR
STARTCHAR 0416
ENCODING 1046
SWIDTH 925 0
DWIDTH 9 0
BBX 8 7 1 0
BITMAP
01
92
94
7C
94
92
01
ENDCHAR
STARTCHAR 0417
ENCODING 1047
SWIDTH 617 0
DWIDTH 6 0
BBX 4 7 1 0
BITMAP
E0
10
10
60
10
10
F0
ENDCHAR
STARTCHAR 0418
ENCODING 1048
SWIDTH 822 0
DWIDTH 8 0
BBX 6 7 1 0
BITMAP
84
84
9C
A4
C4
C4
84
ENDCHAR
STARTCHAR 0419
ENCODING 1049
SWIDTH 822 0
DWIDTH 8 0
BBX 6 8 1 0
BITMAP
30
84
84
9C
A4
C4
C4
84
ENDCHAR
STARTCHAR 041A
ENCODING 1050
SWIDTH 617 0
DWIDTH 6 0
BBX 5 7 1 0
BITMAP
80
90
A0
C0
A0
90
88
ENDCHAR
STARTCHAR 041B
ENCODING 1051
SWIDTH 720 0
DWIDTH 7 0
BBX 5 6 1 0
BITMAP
F8
88
88
88
88
88
ENDCHAR
STARTCHAR 041C
ENCODING 1052
SWIDTH 925 0
DWIDTH 9 0
BBX 7 7 1 0
BITMAP
82
86
C6
CA
AA
92
80
ENDCHAR
STARTCHAR 041D
ENCODING 1053
SWIDTH 822 0
DWIDTH 8 0
BBX 6 7 1 0
BITMAP
84
84
84
FC
84
84
84
ENDCHAR
STARTCHAR 041E
ENCODING 1054
SWIDTH 822 0
DWIDTH 8 0
BBX 7 7 1 0
BITMAP
78
84
84
82
82
84
78
ENDCHAR
STARTCHAR 041F
ENCODING 1055
SWIDTH 822 0
DWIDTH 8 0
BBX 6 7 1 0
BITMAP
FC
84
84
84
84
84
80
ENDCHAR
STARTCHAR 0420
ENCODING 1056
SWIDTH 617 0
DWIDTH 6 0
BBX 5 7 1 0
BITMAP
F0
88
88
88
F0
80
80
ENDCHAR
STARTCHAR 0421
ENCODING 1057
SWIDTH 617 0
DWIDTH 6 0
BBX 5 7 1 0
BITMAP
78
80
80
80
80
80
70
ENDCHAR
STARTCHAR 0422
ENCODING 1058
SWIDTH 514 0
DWIDTH 5 0
BBX 3 6 1 0
BITMAP
E0
40
40
40
40
40
ENDCHAR
STARTCHAR 0423
ENCODING 1059
SWIDTH 617 0
DWIDTH 6 0
BBX 5 7 0 0
BITMAP
80
88
48
50
30
20
60
ENDCHAR
STARTCHAR 0424
ENCODING 1060
SWIDTH 822 0
DWIDTH 8 0
BBX 7 6 1 1
BITMAP
FC
A2
A2
A2
A4
58
ENDCHAR
STARTCHAR 0425
ENCODING 1061
SWIDTH 514 0
DWIDTH 5 0
BBX 4 5 1 1
BITMAP
90
A0
40
A0
90
ENDCHAR
STARTCHAR 0426
ENCODING 1062
SWIDTH 720 0
DWIDTH 7 0
BBX 7 9 1 -2
BITMAP
80
88
88
88
88
88
88
72
02
ENDCHAR
STARTCHAR 0427
ENCODING 1063
SWIDTH 720 0
DWIDTH 7 0
BBX 5 7 1 0
BITMAP
08
88
88
88
78
08
08
ENDCHAR
STARTCHAR 0428
ENCODING 1064
SWIDTH 1028 0
DWIDTH 10 0
BBX 8 7 1 0
BITMAP
80
91
91
91
91
91
FF
ENDCHAR
STARTCHAR 0429
ENCODING 1065
SWIDTH 1028 0
DWIDTH 10 0
BBX 8 8 1 -2
BITMAP
80
91
91
91
91
91
91
6E
ENDCHAR
STARTCHAR 042A
ENCODING 1066
SWIDTH 720 0
DWIDTH 7 0
BBX 6 7 1 0
BITMAP
C0
40
40
7C
44
44
7C
ENDCHAR
STARTCHAR 042B
ENCODING 1067
SWIDTH 925 0
DWIDTH 9 0
BBX 7 7 1 0
BITMAP
80
82
82
FA
8A
8A
F8
ENDCHAR
STARTCHAR 042C
ENCODING 1068
SWIDTH 617 0
DWIDTH 6 0
BBX 5 7 1 0
BITMAP
80
80
80
F8
88
88
F8
ENDCHAR
STARTCHAR 042D
ENCODING 1069
SWIDTH 617 0
DWIDTH 6 0
BBX 5 7 1 0
BITMAP
E0
18
08
78
08
08
F0
ENDCHAR
STARTCHAR 042E
ENCODING 1070
SWIDTH 1028 0
DWIDTH 10 0
BBX 9 7 1 0
BITMAP
8E00
B100
A080
C080
A080
A100
9E00
ENDCHAR
STARTCHAR 042F
ENCODING 1071
SWIDTH 720 0
DWIDTH 7 0
BBX 5 6 1 0
BITMAP
F8
88
88
88
88
78
ENDCHAR
STARTCHAR 0430
ENCODING 1072
SWIDTH 514 0
DWIDTH 5 0
BBX 4 5 1 0
BITMAP
60
10
D0
90
D0
ENDCHAR
STARTCHAR 0431
ENCODING 1073
SWIDTH 617 0
DWIDTH 6 0
BBX 5 7 1 0
BITMAP
60
80
F0
88
88
88
F0
ENDCHAR
STARTCHAR 0432
ENCODING 1074
SWIDTH 514 0
DWIDTH 5 0
BBX 4 5 1 0
BITMAP
F0
90
E0
90
F0
ENDCHAR
STARTCHAR 0433
ENCODING 1075
SWIDTH 411 0
DWIDTH 4 0
BBX 2 4 1 0
BITMAP
C0
80
80
80
ENDCHAR
STARTCHAR 0434
ENCODING 1076
SWIDTH 617 0
DWIDTH 6 0
BBX 6 6 0 -1
BITMAP
78
48
48
88
00
7C
ENDCHAR
STARTCHAR 0435
ENCODING 1077
SWIDTH 514 0
DWIDTH 5 0
BBX 4 5 1 0
BITMAP
E0
90
F0
80
F0
ENDCHAR
STARTCHAR 0436
ENCODING 1078
SWIDTH 720 0
DWIDTH 7 0
BBX 6 4 1 1
BITMAP
A8
70
A8
04
ENDCHAR
STARTCHAR 0437
ENCODING 1079
SWIDTH 514 0
DWIDTH 5 0
BBX 3 5 1 0
BITMAP
60
20
40
20
E0
ENDCHAR
STARTCHAR 0438
ENCODING 1080
SWIDTH 617 0
DWIDTH 6 0
BBX 4 5 1 0
BITMAP
10
B0
D0
D0
80
ENDCHAR
STARTCHAR 0439
ENCODING 1081
SWIDTH 617 0
DWIDTH 6 0
BBX 4 6 1 1
BITMAP
20
10
B0
D0
D0
80
ENDCHAR
STARTCHAR 043A
ENCODING 1082
SWIDTH 514 0
DWIDTH 5 0
BBX 4 5 1 0
BITMAP
10
A0
C0
A0
10
ENDCHAR
STARTCHAR 043B
ENCODING 1083
SWIDTH 514 0
DWIDTH 5 0
BBX 5 5 0 0
BITMAP
78
48
48
88
80
ENDCHAR
STARTCHAR 043C
ENCODING 1084
SWIDTH 720 0
DWIDTH 7 0
BBX 5 4 1 0
BITMAP
88
88
D8
E8
ENDCHAR
STARTCHAR 043D
ENCODING 1085
SWIDTH 617 0
DWIDTH 6 0
BBX 4 3 1 1
BITMAP
90
F0
90
ENDCHAR
STARTCHAR 043E
ENCODING 1086
SWIDTH 617 0
DWIDTH 6 0
BBX 4 5 1 0
BITMAP
F0
90
90
90
F0
ENDCHAR
STARTCHAR 043F
ENCODING 1087
SWIDTH 617 0
DWIDTH 6 0
BBX 4 4 1 0
BITMAP
F0
90
90
90
ENDCHAR
STARTCHAR 0440
ENCODING 1088
SWIDTH 617 0
DWIDTH 6 0
BBX 5 6 1 -2
BITMAP
F0
88
88
88
90
E0
ENDCHAR
STARTCHAR 0441
ENCODING 1089
SWIDTH 514 0
DWIDTH 5 0
BBX 4 5 1 0
BITMAP
F0
80
80
80
F0
ENDCHAR
STARTCHAR 0442
ENCODING 1090
SWIDTH 411 0
DWIDTH 4 0
BBX 2 4 1 0
BITMAP
C0
80
80
80
ENDCHAR
STARTCHAR 0443
ENCODING 1091
SWIDTH 514 0
DWIDTH 5 0
BBX 4 7 0 -2
BITMAP
80
90
50
60
20
40
40
ENDCHAR
STARTCHAR 0444
ENCODING 1092
SWIDTH 720 0
DWIDTH 7 0
BBX 6 7 1 -1
BITMAP
20
F8
A8
A4
A8
A8
70
ENDCHAR
STARTCHAR 0445
ENCODING 1093
SWIDTH 411 0
DWIDTH 4 0
BBX 3 4 1 1
BITMAP
C0
40
C0
20
ENDCHAR
STARTCHAR 0446
ENCODING 1094
SWIDTH 617 0
DWIDTH 6 0
BBX 4 5 1 0
BITMAP
90
90
90
90
60
ENDCHAR
STARTCHAR 0447
ENCODING 1095
SWIDTH 514 0
DWIDTH 5 0
BBX 3 3 1 1
BITMAP
A0
A0
60
ENDCHAR
STARTCHAR 0448
ENCODING 1096
SWIDTH 822 0
DWIDTH 8 0
BBX 7 5 1 0
BITMAP
02
A2
A2
A2
FE
ENDCHAR
STARTCHAR 0449
ENCODING 1097
SWIDTH 822 0
DWIDTH 8 0
BBX 7 6 1 -1
BITMAP
02
A2
A2
A2
A2
5C
ENDCHAR
STARTCHAR 044A
ENCODING 1098
SWIDTH 514 0
DWIDTH 5 0
BBX 4 5 1 0
BITMAP
80
80
F0
90
F0
ENDCHAR
STARTCHAR 044B
ENCODING 1099
SWIDTH 720 0
DWIDTH 7 0
BBX 5 4 1 1
BITMAP
88
F8
98
E0
ENDCHAR
STARTCHAR 044C
ENCODING 1100
SWIDTH 514 0
DWIDTH 5 0
BBX 4 4 1 1
BITMAP
80
F0
90
E0
ENDCHAR
STARTCHAR 044D
ENCODING 1101
SWIDTH 514 0
DWIDTH 5 0
BBX 4 5 1 0
BITMAP
E0
10
70
10
E0
ENDCHAR
STARTCHAR 044E
ENCODING 1102
SWIDTH 822 0
DWIDTH 8 0
BBX 7 5 1 0
BITMAP
3C
C4
C2
C4
3C
ENDCHAR
STARTCHAR 044F
ENCODING 1103
SWIDTH 514 0
DWIDTH 5 0
BBX 4 5 1 0
BITMAP
F0
90
90
70
10
ENDCHAR
STARTCHAR 0450
ENCODING 1104
SWIDTH 514 0
DWIDTH 5 0
BBX 4 7 1 0
BITMAP
40
00
E0
90
F0
80
F0
ENDCHAR
STARTCHAR 0451
ENCODING 1105
SWIDTH 514 0
DWIDTH 5 0
BBX 4 7 1 0
BITMAP
20
00
E0
90
F0
80
F0
ENDCHAR
STARTCHAR 0452
ENCODING 1106
SWIDTH 617 0
DWIDTH 6 0
BBX 5 8 0 -1
BITMAP
E0
F8
88
88
88
08
08
08
ENDCHAR
STARTCHAR 0453
ENCODING 1107
SWIDTH 411 0
DWIDTH 4 0
BBX 2 4 1 2
BITMAP
C0
80
80
80
ENDCHAR
STARTCHAR 0454
ENCODING 1108
SWIDTH 514 0
DWIDTH 5 0
BBX 3 5 1 0
BITMAP
E0
80
E0
80
E0
ENDCHAR
STARTCHAR 0455
ENCODING 1109
SWIDTH 411 0
DWIDTH 4 0
BBX 3 5 1 0
BITMAP
C0
80
40
20
60
ENDCHAR
STARTCHAR 0456
ENCODING 1110
SWIDTH 205 0
DWIDTH 2 0
BBX 1 3 1 3
BITMAP
80
80
80
ENDCHAR
STARTCHAR 0457
ENCODING 1111
SWIDTH 205 0
DWIDTH 2 0
BBX 1 6 0 0
BITMAP
80
00
00
80
80
80
ENDCHAR
STARTCHAR 0458
ENCODING 1112
SWIDTH 205 0
DWIDTH 2 0
BBX 1 6 0 1
BITMAP
80
80
80
80
80
80
ENDCHAR
STARTCHAR 0459
ENCODING 1113
SWIDTH 822 0
DWIDTH 8 0
BBX 8 5 0 0
BITMAP
78
48
4F
89
8F
ENDCHAR
STARTCHAR 045A
ENCODING 1114
SWIDTH 925 0
DWIDTH 9 0
BBX 8 4 1 1
BITMAP
90
FE
91
1E
ENDCHAR
STARTCHAR 045B
ENCODING 1115
SWIDTH 617 0
DWIDTH 6 0
BBX 5 5 0 1
BITMAP
E0
F8
88
88
88
ENDCHAR
STARTCHAR 045C
ENCODING 1116
SWIDTH 514 0
DWIDTH 5 0
BBX 4 5 1 2
BITMAP
10
A0
C0
A0
10
ENDCHAR
STARTCHAR 045D
ENCODING 1117
SWIDTH 617 0
DWIDTH 6 0
BBX 4 5 1 2
BITMAP
10
B0
D0
D0
80
ENDCHAR
STARTCHAR 045E
ENCODING 1118
SWIDTH 514 0
DWIDTH 5 0
BBX 4 9 0 -2
BITMAP
10
20
80
90
50
60
20
40
40
ENDCHAR
STARTCHAR 045F
ENCODING 1119
SWIDTH 617 0
DWIDTH 6 0
BBX 4 5 1 0
BITMAP
90
90
90
90
60
ENDCHAR
STARTCHAR 0462
ENCODING 1122
SWIDTH 720 0
DWIDTH 7 0
BBX 6 6 1 1
BITMAP
E0
80
FC
84
84
F8
ENDCHAR
STARTCHAR 0463
ENCODING 1123
SWIDTH 514 0
DWIDTH 5 0
BBX 4 7 1 0
BITMAP
80
80
C0
80
F0
90
F0
ENDCHAR
STARTCHAR 046A
ENCODING 1130
SWIDTH 822 0
DWIDTH 8 0
BBX 7 6 0 0
BITMAP
FE
44
28
18
76
92
ENDCHAR
STARTCHAR 046B
ENCODING 1131
SWIDTH 617 0
DWIDTH 6 0
BBX 6 5 0 0
BITMAP
F8
50
30
E8
04
ENDCHAR
STARTCHAR 0472
ENCODING 1138
SWIDTH 822 0
DWIDTH 8 0
BBX 7 7 1 0
BITMAP
78
84
84
FE
82
84
78
ENDCHAR
STARTCHAR 0473
ENCODING 1139
SWIDTH 617 0
DWIDTH 6 0
BBX 5 5 1 0
BITMAP
F0
90
F8
90
F0
ENDCHAR
STARTCHAR 0474
ENCODING 1140
SWIDTH 720 0
DWIDTH 7 0
BBX 6 7 0 0
BITMAP
80
8C
88
48
50
30
20
ENDCHAR
STARTCHAR 0475
ENCODING 1141
SWIDTH 514 0
DWIDTH 5 0
BBX 4 5 0 0
BITMAP
80
90
50
60
60
ENDCHAR
STARTCHAR 048A
ENCODING 1162
SWIDTH 822 0
DWIDTH 8 0
BBX 7 9 1 -2
BITMAP
30
84
84
9C
A4
C4
C4
84
02
ENDCHAR
STARTCHAR 048B
ENCODING 1163
SWIDTH 617 0
DWIDTH 6 0
BBX 4 6 1 0
BITMAP
20
10
B0
D0
D0
80
ENDCHAR
STARTCHAR 048C
ENCODING 1164
SWIDTH 720 0
DWIDTH 7 0
BBX 6 6 1 1
BITMAP
C0
80
F8
84
88
F8
ENDCHAR
STARTCHAR 048D
ENCODING 1165
SWIDTH 514 0
DWIDTH 5 0
BBX 4 5 1 0
BITMAP
80
C0
F0
90
F0
ENDCHAR
STARTCHAR 048E
ENCODING 1166
SWIDTH 720 0
DWIDTH 7 0
BBX 5 7 1 0
BITMAP
F0
88
88
A8
F0
80
80
ENDCHAR
STARTCHAR 048F
ENCODING 1167
SWIDTH 617 0
DWIDTH 6 0
BBX 5 6 1 -2
BITMAP
F0
88
88
88
90
E0
ENDCHAR
STARTCHAR 0490
ENCODING 1168
SWIDTH 514 0
DWIDTH 5 0
BBX 3 7 1 1
BITMAP
E0
80
80
80
80
80
80
ENDCHAR
STARTCHAR 0491
ENCODING 1169
SWIDTH 411 0
DWIDTH 4 0
BBX 2 4 1 1
BITMAP
C0
80
80
80
ENDCHAR
STARTCHAR 0492
ENCODING 1170
SWIDTH 514 0
DWIDTH 5 0
BBX 4 6 1 0
BITMAP
70
80
80
80
E0
80
ENDCHAR
STARTCHAR 0493
ENCODING 1171
SWIDTH 411 0
DWIDTH 4 0
BBX 4 4 0 0
BITMAP
70
80
80
E0
ENDCHAR
STARTCHAR 0494
ENCODING 1172
SWIDTH 617 0
DWIDTH 6 0
BBX 5 8 1 -1
BITMAP
F0
80
80
F0
88
88
88
10
ENDCHAR
STARTCHAR 0495
ENCODING 1173
SWIDTH 514 0
DWIDTH 5 0
BBX 4 7 1 -2
BITMAP
C0
80
E0
90
10
10
20
ENDCHAR
STARTCHAR 0496
ENCODING 1174
SWIDTH 925 0
DWIDTH 9 0
BBX 8 7 1 -2
BITMAP
01
92
94
7C
94
92
01
ENDCHAR
STARTCHAR 0497
ENCODING 1175
SWIDTH 720 0
DWIDTH 7 0
BBX 6 4 1 0
BITMAP
A8
70
A8
04
ENDCHAR
STARTCHAR 0498
ENCODING 1176
SWIDTH 617 0
DWIDTH 6 0
BBX 4 8 1 -2
BITMAP
E0
10
10
60
10
10
10
E0
ENDCHAR
STARTCHAR 0499
ENCODING 1177
SWIDTH 514 0
DWIDTH 5 0
BBX 3 6 1 -1
BITMAP
60
20
40
20
20
C0
ENDCHAR
STARTCHAR 049A
ENCODING 1178
SWIDTH 720 0
DWIDTH 7 0
BBX 5 7 1 -2
BITMAP
80
90
A0
C0
A0
90
88
ENDCHAR
STARTCHAR 049B
ENCODING 1179
SWIDTH 514 0
DWIDTH 5 0
BBX 4 5 1 -1
BITMAP
10
A0
C0
A0
10
ENDCHAR
STARTCHAR 049C
ENCODING 1180
SWIDTH 617 0
DWIDTH 6 0
BBX 5 7 1 0
BITMAP
80
90
90
E0
90
90
88
ENDCHAR
STARTCHAR 049D
ENCODING 1181
SWIDTH 514 0
DWIDTH 5 0
BBX 4 5 1 0
BITMAP
10
A0
C0
A0
10
ENDCHAR
STARTCHAR 049E
ENCODING 1182
SWIDTH 617 0
DWIDTH 6 0
BBX 5 6 1 1
BITMAP
D0
90
60
A0
90
08
ENDCHAR
STARTCHAR 049F
ENCODING 1183
SWIDTH 514 0
DWIDTH 5 0
BBX 5 6 0 1
BITMAP
C0
88
90
60
90
08
ENDCHAR
STARTCHAR 04A0
ENCODING 1184
SWIDTH 720 0
DWIDTH 7 0
BBX 6 7 1 0
BITMAP
C0
48
50
60
50
48
44
ENDCHAR
STARTCHAR 04A1
ENCODING 1185
SWIDTH 514 0
DWIDTH 5 0
BBX 4 4 1 1
BITMAP
A0
40
A0
10
ENDCHAR
STARTCHAR 04A2
ENCODING 1186
SWIDTH 822 0
DWIDTH 8 0
BBX 7 8 1 -2
BITMAP
84
84
84
FC
84
84
84
02
ENDCHAR
STARTCHAR 04A3
ENCODING 1187
SWIDTH 617 0
DWIDTH 6 0
BBX 4 3 1 0
BITMAP
90
F0
90
ENDCHAR
STARTCHAR 04A4
ENCODING 1188
SWIDTH 1028 0
DWIDTH 10 0
BBX 9 7 1 0
BITMAP
8780
8400
8400
FC00
8400
8400
8400
ENDCHAR
STARTCHAR 04A5
ENCODING 1189
SWIDTH 822 0
DWIDTH 8 0
BBX 6 5 1 0
BITMAP
1C
90
F0
90
10
ENDCHAR
STARTCHAR 04A6
ENCODING 1190
SWIDTH 1131 0
DWIDTH 11 0
BBX 10 8 1 -1
BITMAP
FC00
8400
8400
8380
8440
8440
8040
00C0
ENDCHAR
STARTCHAR 04A7
ENCODING 1191
SWIDTH 925 0
DWIDTH 9 0
BBX 8 7 1 -2
BITMAP
F0
90
96
91
01
01
02
ENDCHAR
STARTCHAR 04A8
ENCODING 1192
SWIDTH 925 0
DWIDTH 9 0
BBX 7 7 1 0
BITMAP
5C
A2
A2
A2
A2
A2
7E
ENDCHAR
STARTCHAR 04A9
ENCODING 1193
SWIDTH 720 0
DWIDTH 7 0
BBX 6 5 1 0
BITMAP
B8
C4
C4
C8
F8
ENDCHAR
STARTCHAR 04AA
ENCODING 1194
SWIDTH 617 0
DWIDTH 6 0
BBX 5 8 1 -2
BITMAP
78
80
80
80
80
80
40
30
ENDCHAR
STARTCHAR 04AB
ENCODING 1195
SWIDTH 514 0
DWIDTH 5 0
BBX 4 6 1 -1
BITMAP
F0
80
80
80
90
60
ENDCHAR
STARTCHAR 04AC
ENCODING 1196
SWIDTH 514 0
DWIDTH 5 0
BBX 3 6 1 -2
BITMAP
E0
40
40
40
40
40
ENDCHAR
STARTCHAR 04AD
ENCODING 1197
SWIDTH 411 0
DWIDTH 4 0
BBX 2 4 1 -1
BITMAP
C0
80
80
80
ENDCHAR
STARTCHAR 04AE
ENCODING 1198
SWIDTH 617 0
DWIDTH 6 0
BBX 6 6 0 0
BITMAP
84
88
50
50
20
20
ENDCHAR
STARTCHAR 04AF
ENCODING 1199
SWIDTH 514 0
DWIDTH 5 0
BBX 4 7 0 -2
BITMAP
80
90
50
60
60
20
20
ENDCHAR
STARTCHAR 04B0
ENCODING 1200
SWIDTH 617 0
DWIDTH 6 0
BBX 6 6 0 0
BITMAP
84
88
50
50
20
30
ENDCHAR
STARTCHAR 04B1
ENCODING 1201
SWIDTH 514 0
DWIDTH 5 0
BBX 4 7 0 -2
BITMAP
80
90
50
60
60
20
20
ENDCHAR
STARTCHAR 04B2
ENCODING 1202
SWIDTH 617 0
DWIDTH 6 0
BBX 4 5 1 -1
BITMAP
90
A0
40
A0
90
ENDCHAR
STARTCHAR 04B3
ENCODING 1203
SWIDTH 411 0
DWIDTH 4 0
BBX 4 5 1 0
BITMAP
C0
40
C0
20
10
ENDCHAR
STARTCHAR 04B4
ENCODING 1204
SWIDTH 925 0
DWIDTH 9 0
BBX 7 8 1 -2
BITMAP
E0
42
42
42
42
42
42
1C
ENDCHAR
STARTCHAR 04B5
ENCODING 1205
SWIDTH 720 0
DWIDTH 7 0
BBX 6 6 1 -1
BITMAP
C0
88
88
88
88
34
ENDCHAR
STARTCHAR 04B6
ENCODING 1206
SWIDTH 720 0
DWIDTH 7 0
BBX 6 8 1 -2
BITMAP
08
88
88
88
78
08
08
04
ENDCHAR
STARTCHAR 04B7
ENCODING 1207
SWIDTH 514 0
DWIDTH 5 0
BBX 3 3 1 0
BITMAP
A0
A0
60
ENDCHAR
STARTCHAR 04B8
ENCODING 1208
SWIDTH 720 0
DWIDTH 7 0
BBX 5 7 1 0
BITMAP
08
88
88
88
78
08
08
ENDCHAR
STARTCHAR 04B9
ENCODING 1209
SWIDTH 514 0
DWIDTH 5 0
BBX 3 3 1 1
BITMAP
A0
E0
60
ENDCHAR
STARTCHAR 04BA
ENCODING 1210
SWIDTH 720 0
DWIDTH 7 0
BBX 5 7 1 0
BITMAP
80
80
80
F8
88
88
80
ENDCHAR
STARTCHAR 04BB
ENCODING 1211
SWIDTH 617 0
DWIDTH 6 0
BBX 4 5 1 1
BITMAP
80
F0
90
90
90
ENDCHAR
STARTCHAR 04BC
ENCODING 1212
SWIDTH 925 0
DWIDTH 9 0
BBX 9 7 0 0
BITMAP
1E00
2100
C080
C080
7F00
2000
1E00
ENDCHAR
STARTCHAR 04BD
ENCODING 1213
SWIDTH 617 0
DWIDTH 6 0
BBX 6 5 0 0
BITMAP
3C
40
DC
40
3C
ENDCHAR
STARTCHAR 04BE
ENCODING 1214
SWIDTH 925 0
DWIDTH 9 0
BBX 9 9 0 -2
BITMAP
1E00
2100
C080
C080
7F00
2000
1000
0E00
0400
ENDCHAR
STARTCHAR 04BF
ENCODING 1215
SWIDTH 617 0
DWIDTH 6 0
BBX 6 6 0 -1
BITMAP
3C
40
DC
40
24
18
ENDCHAR
STARTCHAR 04C0
ENCODING 1216
SWIDTH 205 0
DWIDTH 2 0
BBX 1 7 1 0
BITMAP
80
80
80
80
80
80
80
ENDCHAR
STARTCHAR 04C1
ENCODING 1217
SWIDTH 925 0
DWIDTH 9 0
BBX 8 8 1 0
BITMAP
10
01
92
94
7C
94
92
01
ENDCHAR
STARTCHAR 04C2
ENCODING 1218
SWIDTH 720 0
DWIDTH 7 0
BBX 6 6 1 1
BITMAP
20
00
A8
70
A8
04
ENDCHAR
STARTCHAR 04C3
ENCODING 1219
SWIDTH 617 0
DWIDTH 6 0
BBX 5 9 1 -2
BITMAP
80
90
A0
C0
90
90
88
08
08
ENDCHAR
STARTCHAR 04C4
ENCODING 1220
SWIDTH 514 0
DWIDTH 5 0
BBX 4 7 1 -2
BITMAP
10
A0
C0
A0
10
10
10
ENDCHAR
STARTCHAR 04C6
ENCODING 1222
SWIDTH 617 0
DWIDTH 6 0
BBX 5 5 0 -1
BITMAP
78
48
48
88
80
ENDCHAR
STARTCHAR 04C7
ENCODING 1223
SWIDTH 720 0
DWIDTH 7 0
BBX 6 9 1 -2
BITMAP
84
84
84
FC
84
84
84
04
18
ENDCHAR
STARTCHAR 04C8
ENCODING 1224
SWIDTH 617 0
DWIDTH 6 0
BBX 4 6 1 -1
BITMAP
90
F0
90
10
10
10
ENDCHAR
STARTCHAR 04C9
ENCODING 1225
SWIDTH 822 0
DWIDTH 8 0
BBX 7 8 1 -2
BITMAP
84
84
84
FC
84
84
84
02
ENDCHAR
STARTCHAR 04CA
ENCODING 1226
SWIDTH 617 0
DWIDTH 6 0
BBX 4 3 1 0
BITMAP
90
F0
90
ENDCHAR
STARTCHAR 04CB
ENCODING 1227
SWIDTH 720 0
DWIDTH 7 0
BBX 5 9 1 -2
BITMAP
08
88
88
88
78
08
08
10
10
ENDCHAR
STARTCHAR 04CC
ENCODING 1228
SWIDTH 514 0
DWIDTH 5 0
BBX 3 5 1 0
BITMAP
A0
A0
60
00
20
ENDCHAR
STARTCHAR 04CD
ENCODING 1229
SWIDTH 925 0
DWIDTH 9 0
BBX 7 7 1 -2
BITMAP
82
86
C6
CA
AA
92
80
ENDCHAR
STARTCHAR 04CE
ENCODING 1230
SWIDTH 720 0
DWIDTH 7 0
BBX 5 4 1 -1
BITMAP
88
88
D8
E8
ENDCHAR
STARTCHAR 04CF
ENCODING 1231
SWIDTH 205 0
DWIDTH 2 0
BBX 1 5 1 1
BITMAP
80
80
80
80
80
ENDCHAR
STARTCHAR 04D0
ENCODING 1232
SWIDTH 617 0
DWIDTH 6 0
BBX 7 8 0 0
BITMAP
10
30
30
28
48
44
BC
82
ENDCHAR
STARTCHAR 04D1
ENCODING 1233
SWIDTH 514 0
DWIDTH 5 0
BBX 4 7 1 0
BITMAP
80
40
60
10
D0
90
D0
ENDCHAR
STARTCHAR 04D2
ENCODING 1234
SWIDTH 617 0
DWIDTH 6 0
BBX 7 7 0 1
BITMAP
30
30
28
48
44
BC
82
ENDCHAR
STARTCHAR 04D3
ENCODING 1235
SWIDTH 514 0
DWIDTH 5 0
BBX 4 7 1 0
BITMAP
20
00
60
10
D0
90
D0
ENDCHAR
STARTCHAR 04D4
ENCODING 1236
SWIDTH 925 0
DWIDTH 9 0
BBX 9 7 0 0
BITMAP
0700
1800
2800
2780
4800
9800
8700
ENDCHAR
STARTCHAR 04D5
ENCODING 1237
SWIDTH 925 0
DWIDTH 9 0
BBX 8 5 1 0
BITMAP
7E
11
DF
B0
EE
ENDCHAR
STARTCHAR 04D6
ENCODING 1238
SWIDTH 617 0
DWIDTH 6 0
BBX 4 8 1 0
BITMAP
20
D0
80
80
F0
80
80
F0
ENDCHAR
STARTCHAR 04D7
ENCODING 1239
SWIDTH 514 0
DWIDTH 5 0
BBX 4 5 1 2
BITMAP
E0
90
F0
80
F0
ENDCHAR
STARTCHAR 04D8
ENCODING 1240
SWIDTH 822 0
DWIDTH 8 0
BBX 7 7 0 0
BITMAP
38
06
02
FE
82
82
7C
ENDCHAR
STARTCHAR 04D9
ENCODING 1241
SWIDTH 514 0
DWIDTH 5 0
BBX 4 5 1 0
BITMAP
60
10
F0
90
E0
ENDCHAR
STARTCHAR 04DA
ENCODING 1242
SWIDTH 822 0
DWIDTH 8 0
BBX 7 7 0 1
BITMAP
38
06
02
FE
82
82
7C
ENDCHAR
STARTCHAR 04DB
ENCODING 1243
SWIDTH 514 0
DWIDTH 5 0
BBX 4 7 1 0
BITMAP
20
00
60
10
F0
90
E0
ENDCHAR
STARTCHAR 04DC
ENCODING 1244
SWIDTH 925 0
DWIDTH 9 0
BBX 8 7 1 1
BITMAP
01
92
94
7C
94
92
01
ENDCHAR
STARTCHAR 04DD
ENCODING 1245
SWIDTH 720 0
DWIDTH 7 0
BBX 6 7 1 0
BITMAP
10
00
00
A8
70
A8
04
ENDCHAR
STARTCHAR 04DE
ENCODING 1246
SWIDTH 617 0
DWIDTH 6 0
BBX 4 7 1 1
BITMAP
E0
10
10
60
10
10
F0
ENDCHAR
STARTCHAR 04DF
ENCODING 1247
SWIDTH 514 0
DWIDTH 5 0
BBX 3 7 1 0
BITMAP
80
00
60
20
40
20
E0
ENDCHAR
STARTCHAR 04E0
ENCODING 1248
SWIDTH 514 0
DWIDTH 5 0
BBX 4 7 1 0
BITMAP
70
30
40
20
10
10
F0
ENDCHAR
STARTCHAR 04E1
ENCODING 1249
SWIDTH 411 0
DWIDTH 4 0
BBX 4 7 0 -2
BITMAP
70
30
40
30
10
10
F0
ENDCHAR
STARTCHAR 04E2
ENCODING 1250
SWIDTH 822 0
DWIDTH 8 0
BBX 6 7 1 1
BITMAP
84
84
9C
A4
C4
C4
84
ENDCHAR
STARTCHAR 04E3
ENCODING 1251
SWIDTH 617 0
DWIDTH 6 0
BBX 4 7 1 0
BITMAP
70
00
10
B0
D0
D0
80
ENDCHAR
STARTCHAR 04E4
ENCODING 1252
SWIDTH 822 0
DWIDTH 8 0
BBX 6 7 1 1
BITMAP
84
84
9C
A4
C4
C4
84
ENDCHAR
STARTCHAR 04E5
ENCODING 1253
SWIDTH 617 0
DWIDTH 6 0
BBX 4 7 1 0
BITMAP
40
00
10
B0
D0
D0
80
ENDCHAR
STARTCHAR 04E6
ENCODING 1254
SWIDTH 822 0
DWIDTH 8 0
BBX 7 7 1 1
BITMAP
78
84
84
82
82
84
78
ENDCHAR
STARTCHAR 04E7
ENCODING 1255
SWIDTH 617 0
DWIDTH 6 0
BBX 4 5 1 2
BITMAP
F0
90
90
90
F0
ENDCHAR
STARTCHAR 04E8
ENCODING 1256
SWIDTH 822 0
DWIDTH 8 0
BBX 7 7 1 0
BITMAP
78
84
84
FE
82
84
78
ENDCHAR
STARTCHAR 04E9
ENCODING 1257
SWIDTH 617 0
DWIDTH 6 0
BBX 5 5 1 0
BITMAP
F0
90
F8
90
F0
ENDCHAR
STARTCHAR 04EA
ENCODING 1258
SWIDTH 822 0
DWIDTH 8 0
BBX 7 7 1 1
BITMAP
78
84
84
FE
82
84
78
ENDCHAR
STARTCHAR 04EB
ENCODING 1259
SWIDTH 617 0
DWIDTH 6 0
BBX 5 7 1 0
BITMAP
40
00
F0
90
F8
90
F0
ENDCHAR
STARTCHAR 04EC
ENCODING 1260
SWIDTH 617 0
DWIDTH 6 0
BBX 5 7 1 1
BITMAP
E0
18
08
78
08
08
F0
ENDCHAR
STARTCHAR 04ED
ENCODING 1261
SWIDTH 514 0
DWIDTH 5 0
BBX 4 7 1 0
BITMAP
80
00
E0
10
70
10
E0
ENDCHAR
STARTCHAR 04EE
ENCODING 1262
SWIDTH 617 0
DWIDTH 6 0
BBX 5 7 0 1
BITMAP
80
88
48
50
30
20
60
ENDCHAR
STARTCHAR 04EF
ENCODING 1263
SWIDTH 514 0
DWIDTH 5 0
BBX 4 9 0 -2
BITMAP
70
00
80
90
50
60
20
40
40
ENDCHAR
STARTCHAR 04F0
ENCODING 1264
SWIDTH 617 0
DWIDTH 6 0
BBX 5 7 0 1
BITMAP
80
88
48
50
30
20
60
ENDCHAR
STARTCHAR 04F1
ENCODING 1265
SWIDTH 514 0
DWIDTH 5 0
BBX 4 9 0 -2
BITMAP
40
00
80
90
50
60
20
40
40
ENDCHAR
STARTCHAR 04F2
ENCODING 1266
SWIDTH 617 0
DWIDTH 6 0
BBX 5 8 0 0
BITMAP
20
80
88
48
50
30
20
60
ENDCHAR
STARTCHAR 04F3
ENCODING 1267
SWIDTH 514 0
DWIDTH 5 0
BBX 4 9 0 -2
BITMAP
20
00
80
90
50
60
20
40
40
ENDCHAR
STARTCHAR 04F4
ENCODING 1268
SWIDTH 720 0
DWIDTH 7 0
BBX 5 7 1 1
BITMAP
08
88
88
88
78
08
08
ENDCHAR
STARTCHAR 04F5
ENCODING 1269
SWIDTH 514 0
DWIDTH 5 0
BBX 3 6 1 0
BITMAP
A0
00
00
A0
A0
60
ENDCHAR
STARTCHAR 04F6
ENCODING 1270
SWIDTH 514 0
DWIDTH 5 0
BBX 3 9 1 -2
BITMAP
E0
80
80
80
80
80
80
40
40
ENDCHAR
STARTCHAR 04F7
ENCODING 1271
SWIDTH 411 0
DWIDTH 4 0
BBX 2 4 1 -1
BITMAP
C0
80
80
80
ENDCHAR
STARTCHAR 04F8
ENCODING 1272
SWIDTH 925 0
DWIDTH 9 0
BBX 7 7 1 1
BITMAP
80
82
82
FA
8A
8A
F8
ENDCHAR
STARTCHAR 04F9
ENCODING 1273
SWIDTH 720 0
DWIDTH 7 0
BBX 5 7 1 0
BITMAP
10
00
00
88
F8
98
E0
ENDCHAR
STARTCHAR 04FA
ENCODING 1274
SWIDTH 514 0
DWIDTH 5 0
BBX 4 9 1 -2
BITMAP
30
80
80
80
E0
80
00
00
40
ENDCHAR
STARTCHAR 04FB
ENCODING 1275
SWIDTH 411 0
DWIDTH 4 0
BBX 3 7 0 -2
BITMAP
20
80
80
E0
00
00
40
ENDCHAR
STARTCHAR 04FC
ENCODING 1276
SWIDTH 514 0
DWIDTH 5 0
BBX 5 8 1 -1
BITMAP
90
A0
40
A0
90
10
08
30
ENDCHAR
STARTCHAR 04FD
ENCODING 1277
SWIDTH 411 0
DWIDTH 4 0
BBX 4 6 1 -1
BITMAP
C0
40
C0
20
10
60
ENDCHAR
STARTCHAR 04FE
ENCODING 1278
SWIDTH 617 0
DWIDTH 6 0
BBX 4 5 1 1
BITMAP
90
60
F0
A0
90
ENDCHAR
STARTCHAR 04FF
ENCODING 1279
SWIDTH 514 0
DWIDTH 5 0
BBX 3 3 1 1
BITMAP
E0
E0
A0
ENDCHAR
STARTCHAR 0510
ENCODING 1296
SWIDTH 617 0
DWIDTH 6 0
BBX 4 7 1 0
BITMAP
F0
80
80
60
80
80
F0
ENDCHAR
STARTCHAR 0511
ENCODING 1297
SWIDTH 514 0
DWIDTH 5 0
BBX 3 5 1 0
BITMAP
C0
80
C0
80
E0
ENDCHAR
STARTCHAR 0512
ENCODING 1298
SWIDTH 720 0
DWIDTH 7 0
BBX 5 9 1 -2
BITMAP
F8
88
88
88
88
88
08
08
08
ENDCHAR
STARTCHAR 0513
ENCODING 1299
SWIDTH 514 0
DWIDTH 5 0
BBX 5 7 0 -2
BITMAP
78
48
48
88
08
08
08
ENDCHAR
STARTCHAR 051A
ENCODING 1306
SWIDTH 822 0
DWIDTH 8 0
BBX 7 8 1 -1
BITMAP
78
84
84
82
82
84
48
3C
ENDCHAR
STARTCHAR 051B
ENCODING 1307
SWIDTH 617 0
DWIDTH 6 0
BBX 4 6 1 -2
BITMAP
F0
90
90
90
90
70
ENDCHAR
STARTCHAR 051C
ENCODING 1308
SWIDTH 1028 0
DWIDTH 10 0
BBX 10 7 0 0
BITMAP
8840
8480
9C80
5480
5300
6300
2100
ENDCHAR
STARTCHAR 051D
ENCODING 1309
SWIDTH 822 0
DWIDTH 8 0
BBX 8 5 0 0
BITMAP
98
99
A5
66
26
ENDCHAR
STARTCHAR 0524
ENCODING 1316
SWIDTH 822 0
DWIDTH 8 0
BBX 6 7 1 -2
BITMAP
FC
84
84
84
84
84
80
ENDCHAR
STARTCHAR 0525
ENCODING 1317
SWIDTH 617 0
DWIDTH 6 0
BBX 4 4 1 -1
BITMAP
F0
90
90
90
ENDCHAR
STARTCHAR 0526
ENCODING 1318
SWIDTH 720 0
DWIDTH 7 0
BBX 5 7 1 -2
BITMAP
80
80
80
F8
88
88
80
ENDCHAR
STARTCHAR 0527
ENCODING 1319
SWIDTH 617 0
DWIDTH 6 0
BBX 4 5 1 0
BITMAP
80
F0
90
90
90
ENDCHAR
STARTCHAR 0528
ENCODING 1320
SWIDTH 720 0
DWIDTH 7 0
BBX 8 9 -1 -2
BITMAP
21
21
21
3F
21
21
21
20
C0
ENDCHAR
STARTCHAR 0529
ENCODING 1321
SWIDTH 617 0
DWIDTH 6 0
BBX 5 6 0 -1
BITMAP
88
78
88
80
80
80
ENDCHAR
STARTCHAR 052E
ENCODING 1326
SWIDTH 720 0
DWIDTH 7 0
BBX 5 6 1 -2
BITMAP
F8
88
88
88
88
88
ENDCHAR
STARTCHAR 052F
ENCODING 1327
SWIDTH 617 0
DWIDTH 6 0
BBX 6 6 0 -1
BITMAP
78
48
48
88
80
04
ENDCHAR
STARTCHAR 1E08
ENCODING 7688
SWIDTH 617 0
DWIDTH 6 0
BBX 5 9 1 -1
BITMAP
78
80
80
80
80
80
40
30
10
ENDCHAR
STARTCHAR 1E09
ENCODING 7689
SWIDTH 514 0
DWIDTH 5 0
BBX 4 7 1 0
BITMAP
F0
80
80
80
90
60
20
ENDCHAR
STARTCHAR 1E0C
ENCODING 7692
SWIDTH 822 0
DWIDTH 8 0
BBX 6 8 1 -2
BITMAP
F0
8C
84
84
84
84
88
70
ENDCHAR
STARTCHAR 1E0D
ENCODING 7693
SWIDTH 617 0
DWIDTH 6 0
BBX 4 7 1 -1
BITMAP
10
F0
90
90
90
A0
40
ENDCHAR
STARTCHAR 1E0E
ENCODING 7694
SWIDTH 822 0
DWIDTH 8 0
BBX 6 9 1 -2
BITMAP
F0
8C
84
84
84
84
88
70
30
ENDCHAR
STARTCHAR 1E0F
ENCODING 7695
SWIDTH 617 0
DWIDTH 6 0
BBX 4 8 1 -1
BITMAP
10
F0
90
90
90
A0
40
70
ENDCHAR
STARTCHAR 1E14
ENCODING 7700
SWIDTH 617 0
DWIDTH 6 0
BBX 4 9 1 0
BITMAP
20
20
F0
80
80
F0
80
80
F0
ENDCHAR
STARTCHAR 1E15
ENCODING 7701
SWIDTH 514 0
DWIDTH 5 0
BBX 4 8 1 0
BITMAP
40
00
00
E0
90
F0
80
F0
ENDCHAR
STARTCHAR 1E16
ENCODING 7702
SWIDTH 617 0
DWIDTH 6 0
BBX 4 8 1 1
BITMAP
20
F0
80
80
F0
80
80
F0
ENDCHAR
STARTCHAR 1E17
ENCODING 7703
SWIDTH 514 0
DWIDTH 5 0
BBX 4 5 1 3
BITMAP
E0
90
F0
80
F0
ENDCHAR
STARTCHAR 1E1C
ENCODING 7708
SWIDTH 617 0
DWIDTH 6 0
BBX 4 9 1 -2
BITMAP
20
D0
80
80
F0
80
80
00
F0
ENDCHAR
STARTCHAR 1E1D
ENCODING 7709
SWIDTH 514 0
DWIDTH 5 0
BBX 4 7 1 0
BITMAP
E0
90
F0
80
90
60
20
ENDCHAR
STARTCHAR 1E20
ENCODING 7712
SWIDTH 720 0
DWIDTH 7 0
BBX 5 7 1 1
BITMAP
78
80
80
80
80
80
70
ENDCHAR
STARTCHAR 1E21
ENCODING 7713
SWIDTH 617 0
DWIDTH 6 0
BBX 4 9 1 -2
BITMAP
60
00
F0
90
90
90
B0
50
F0
ENDCHAR
STARTCHAR 1E24
ENCODING 7716
SWIDTH 720 0
DWIDTH 7 0
BBX 6 7 1 -2
BITMAP
04
84
84
FC
84
84
04
ENDCHAR
STARTCHAR 1E25
ENCODING 7717
SWIDTH 617 0
DWIDTH 6 0
BBX 4 8 1 -1
BITMAP
80
F0
90
90
90
00
00
20
ENDCHAR
STARTCHAR 1E2A
ENCODING 7722
SWIDTH 720 0
DWIDTH 7 0
BBX 6 7 1 -2
BITMAP
04
84
84
FC
84
84
04
ENDCHAR
STARTCHAR 1E2B
ENCODING 7723
SWIDTH 617 0
DWIDTH 6 0
BBX 4 8 1 -1
BITMAP
80
F0
90
90
90
00
00
60
ENDCHAR
STARTCHAR 1E2E
ENCODING 7726
SWIDTH 205 0
DWIDTH 2 0
BBX 1 5 0 3
BITMAP
80
80
80
80
80
ENDCHAR
STARTCHAR 1E2F
ENCODING 7727
SWIDTH 205 0
DWIDTH 2 0
BBX 2 7 0 0
BITMAP
40
80
00
00
80
80
80
ENDCHAR
STARTCHAR 1E36
ENCODING 7734
SWIDTH 514 0
DWIDTH 5 0
BBX 4 8 1 -1
BITMAP
80
80
80
80
80
00
70
20
ENDCHAR
STARTCHAR 1E37
ENCODING 7735
SWIDTH 205 0
DWIDTH 2 0
BBX 1 5 1 -1
BITMAP
80
80
80
80
80
ENDCHAR
STARTCHAR 1E3A
ENCODING 7738
SWIDTH 514 0
DWIDTH 5 0
BBX 4 8 1 -1
BITMAP
80
80
80
80
80
00
70
70
ENDCHAR
STARTCHAR 1E3B
ENCODING 7739
SWIDTH 205 0
DWIDTH 2 0
BBX 3 8 0 -1
BITMAP
80
80
80
80
80
00
00
E0
ENDCHAR
STARTCHAR 1E42
ENCODING 7746
SWIDTH 925 0
DWIDTH 9 0
BBX 7 9 1 -2
BITMAP
82
86
C6
CA
AA
B2
00
00
10
ENDCHAR
STARTCHAR 1E43
ENCODING 7747
SWIDTH 1028 0
DWIDTH 10 0
BBX 8 4 1 -2
BITMAP
FF
91
91
91
ENDCHAR
STARTCHAR 1E44
ENCODING 7748
SWIDTH 720 0
DWIDTH 7 0
BBX 6 7 1 1
BITMAP
84
84
C4
A4
94
8C
04
ENDCHAR
STARTCHAR 1E45
ENCODING 7749
SWIDTH 617 0
DWIDTH 6 0
BBX 4 6 1 0
BITMAP
20
00
F0
90
90
90
ENDCHAR
STARTCHAR 1E46
ENCODING 7750
SWIDTH 720 0
DWIDTH 7 0
BBX 6 7 1 -2
BITMAP
84
84
C4
A4
94
8C
04
ENDCHAR
STARTCHAR 1E47
ENCODING 7751
SWIDTH 617 0
DWIDTH 6 0
BBX 4 7 1 -2
BITMAP
F0
90
90
90
00
00
20
ENDCHAR
STARTCHAR 1E48
ENCODING 7752
SWIDTH 720 0
DWIDTH 7 0
BBX 6 9 1 -2
BITMAP
84
84
C4
A4
94
8C
04
00
30
ENDCHAR
STARTCHAR 1E49
ENCODING 7753
SWIDTH 617 0
DWIDTH 6 0
BBX 4 7 1 -2
BITMAP
F0
90
90
90
00
00
70
ENDCHAR
STARTCHAR 1E4C
ENCODING 7756
SWIDTH 822 0
DWIDTH 8 0
BBX 7 8 1 1
BITMAP
10
78
84
84
82
84
84
78
ENDCHAR
STARTCHAR 1E4D
ENCODING 7757
SWIDTH 514 0
DWIDTH 5 0
BBX 4 7 1 1
BITMAP
40
20
F0
90
90
90
F0
ENDCHAR
STARTCHAR 1E4E
ENCODING 7758
SWIDTH 822 0
DWIDTH 8 0
BBX 7 8 1 1
BITMAP
10
78
84
84
82
84
84
78
ENDCHAR
STARTCHAR 1E4F
ENCODING 7759
SWIDTH 514 0
DWIDTH 5 0
BBX 4 7 1 1
BITMAP
40
20
F0
90
90
90
F0
ENDCHAR
STARTCHAR 1E50
ENCODING 7760
SWIDTH 822 0
DWIDTH 8 0
BBX 7 7 1 2
BITMAP
78
84
84
82
84
84
78
ENDCHAR
STARTCHAR 1E51
ENCODING 7761
SWIDTH 514 0
DWIDTH 5 0
BBX 4 8 1 0
BITMAP
40
00
00
F0
90
90
90
F0
ENDCHAR
STARTCHAR 1E52
ENCODING 7762
SWIDTH 822 0
DWIDTH 8 0
BBX 7 7 1 2
BITMAP
78
84
84
82
84
84
78
ENDCHAR
STARTCHAR 1E53
ENCODING 7763
SWIDTH 514 0
DWIDTH 5 0
BBX 4 5 1 3
BITMAP
F0
90
90
90
F0
ENDCHAR
STARTCHAR 1E5A
ENCODING 7770
SWIDTH 617 0
DWIDTH 6 0
BBX 5 9 1 -2
BITMAP
F0
88
88
88
F0
80
08
00
20
ENDCHAR
STARTCHAR 1E5B
ENCODING 7771
SWIDTH 308 0
DWIDTH 3 0
BBX 1 3 1 -1
BITMAP
80
80
80
ENDCHAR
STARTCHAR 1E5E
ENCODING 7774
SWIDTH 617 0
DWIDTH 6 0
BBX 5 9 1 -2
BITMAP
F0
88
88
88
F0
80
08
00
70
ENDCHAR
STARTCHAR 1E5F
ENCODING 7775
SWIDTH 308 0
DWIDTH 3 0
BBX 3 6 0 -1
BITMAP
80
80
80
00
00
E0
ENDCHAR
STARTCHAR 1E60
ENCODING 7776
SWIDTH 514 0
DWIDTH 5 0
BBX 4 7 1 1
BITMAP
F0
80
80
40
30
10
70
ENDCHAR
STARTCHAR 1E61
ENCODING 7777
SWIDTH 411 0
DWIDTH 4 0
BBX 4 7 0 0
BITMAP
20
00
E0
80
60
10
F0
ENDCHAR
STARTCHAR 1E62
ENCODING 7778
SWIDTH 514 0
DWIDTH 5 0
BBX 4 8 1 -2
BITMAP
F0
80
80
40
30
10
10
60
ENDCHAR
STARTCHAR 1E63
ENCODING 7779
SWIDTH 411 0
DWIDTH 4 0
BBX 4 7 0 -2
BITMAP
E0
80
60
10
90
60
20
ENDCHAR
STARTCHAR 1E64
ENCODING 7780
SWIDTH 514 0
DWIDTH 5 0
BBX 4 7 1 2
BITMAP
F0
80
80
40
30
10
70
ENDCHAR
STARTCHAR 1E65
ENCODING 7781
SWIDTH 411 0
DWIDTH 4 0
BBX 4 8 0 0
BITMAP
20
00
00
E0
80
60
10
F0
ENDCHAR
STARTCHAR 1E66
ENCODING 7782
SWIDTH 514 0
DWIDTH 5 0
BBX 4 7 1 2
BITMAP
F0
80
80
40
30
10
70
ENDCHAR
STARTCHAR 1E67
ENCODING 7783
SWIDTH 411 0
DWIDTH 4 0
BBX 4 7 0 1
BITMAP
40
20
E0
80
60
10
F0
ENDCHAR
STARTCHAR 1E68
ENCODING 7784
SWIDTH 514 0
DWIDTH 5 0
BBX 4 8 1 -1
BITMAP
F0
80
80
40
30
10
10
60
ENDCHAR
STARTCHAR 1E69
ENCODING 7785
SWIDTH 411 0
DWIDTH 4 0
BBX 4 9 0 -2
BITMAP
20
00
E0
80
60
10
90
60
20
ENDCHAR
STARTCHAR 1E6C
ENCODING 7788
SWIDTH 514 0
DWIDTH 5 0
BBX 3 9 1 -2
BITMAP
E0
40
40
40
40
40
00
00
40
ENDCHAR
STARTCHAR 1E6D
ENCODING 7789
SWIDTH 308 0
DWIDTH 3 0
BBX 3 7 0 -1
BITMAP
C0
80
80
80
40
00
20
ENDCHAR
STARTCHAR 1E6E
ENCODING 7790
SWIDTH 514 0
DWIDTH 5 0
BBX 3 9 1 -2
BITMAP
E0
40
40
40
40
40
00
00
E0
ENDCHAR
STARTCHAR 1E6F
ENCODING 7791
SWIDTH 308 0
DWIDTH 3 0
BBX 4 7 0 -1
BITMAP
C0
80
80
80
40
00
70
ENDCHAR
STARTCHAR 1E78
ENCODING 7800
SWIDTH 720 0
DWIDTH 7 0
BBX 5 9 1 0
BITMAP
20
00
00
88
88
88
88
88
F8
ENDCHAR
STARTCHAR 1E79
ENCODING 7801
SWIDTH 617 0
DWIDTH 6 0
BBX 4 8 1 0
BITMAP
20
40
20
00
90
90
90
F0
ENDCHAR
STARTCHAR 1E7A
ENCODING 7802
SWIDTH 720 0
DWIDTH 7 0
BBX 5 6 1 3
BITMAP
88
88
88
88
88
F8
ENDCHAR
STARTCHAR 1E7B
ENCODING 7803
SWIDTH 617 0
DWIDTH 6 0
BBX 4 8 1 0
BITMAP
40
00
20
00
90
90
90
F0
ENDCHAR
STARTCHAR 1E80
ENCODING 7808
SWIDTH 1028 0
DWIDTH 10 0
BBX 10 8 0 0
BITMAP
0400
0800
8C40
8C80
5480
5280
6300
2100
ENDCHAR
STARTCHAR 1E81
ENCODING 7809
SWIDTH 822 0
DWIDTH 8 0
BBX 8 7 0 0
BITMAP
10
00
90
9B
AA
66
44
ENDCHAR
STARTCHAR 1E82
ENCODING 7810
SWIDTH 1028 0
DWIDTH 10 0
BBX 10 7 0 1
BITMAP
0800
8C40
8C80
5480
5280
6300
2100
ENDCHAR
STARTCHAR 1E83
ENCODING 7811
SWIDTH 822 0
DWIDTH 8 0
BBX 8 7 0 0
BITMAP
08
00
90
9B
AA
66
44
ENDCHAR
STARTCHAR 1E84
ENCODING 7812
SWIDTH 1028 0
DWIDTH 10 0
BBX 10 7 0 1
BITMAP
0800
8C40
8C80
5480
5280
6300
2100
ENDCHAR
STARTCHAR 1E85
ENCODING 7813
SWIDTH 822 0
DWIDTH 8 0
BBX 8 7 0 0
BITMAP
10
00
90
9B
AA
66
44
ENDCHAR
STARTCHAR 1E8E
ENCODING 7822
SWIDTH 514 0
DWIDTH 5 0
BBX 6 6 0 1
BITMAP
84
88
50
50
20
20
ENDCHAR
STARTCHAR 1E8F
ENCODING 7823
SWIDTH 411 0
DWIDTH 4 0
BBX 5 9 0 -2
BITMAP
20
00
88
90
90
60
20
40
40
ENDCHAR
STARTCHAR 1E92
ENCODING 7826
SWIDTH 617 0
DWIDTH 6 0
BBX 6 9 0 -2
BITMAP
3C
08
10
20
20
40
80
78
10
ENDCHAR
STARTCHAR 1E93
ENCODING 7827
SWIDTH 411 0
DWIDTH 4 0
BBX 4 7 0 -2
BITMAP
70
30
40
40
80
60
20
ENDCHAR
STARTCHAR 1E97
ENCODING 7831
SWIDTH 308 0
DWIDTH 3 0
BBX 2 8 0 0
BITMAP
80
00
00
C0
80
80
80
40
ENDCHAR
STARTCHAR 1E9E
ENCODING 7838
SWIDTH 720 0
DWIDTH 7 0
BBX 6 7 1 0
BITMAP
70
88
90
88
88
84
18
ENDCHAR
STARTCHAR 1EA0
ENCODING 7840
SWIDTH 617 0
DWIDTH 6 0
BBX 6 9 0 -2
BITMAP
10
30
48
48
88
B4
80
00
10
ENDCHAR
STARTCHAR 1EA1
ENCODING 7841
SWIDTH 514 0
DWIDTH 5 0
BBX 4 7 1 -2
BITMAP
60
10
D0
90
90
40
40
ENDCHAR
STARTCHAR 1EA2
ENCODING 7842
SWIDTH 617 0
DWIDTH 6 0
BBX 6 8 0 1
BITMAP
10
10
30
48
48
88
B4
80
ENDCHAR
STARTCHAR 1EA3
ENCODING 7843
SWIDTH 514 0
DWIDTH 5 0
BBX 4 5 1 2
BITMAP
60
10
D0
90
D0
ENDCHAR
STARTCHAR 1EA4
ENCODING 7844
SWIDTH 617 0
DWIDTH 6 0
BBX 6 8 0 1
BITMAP
30
10
30
48
48
88
B4
80
ENDCHAR
STARTCHAR 1EA5
ENCODING 7845
SWIDTH 514 0
DWIDTH 5 0
BBX 4 8 1 0
BITMAP
10
40
00
60
10
D0
90
D0
ENDCHAR
STARTCHAR 1EA6
ENCODING 7846
SWIDTH 617 0
DWIDTH 6 0
BBX 6 8 0 1
BITMAP
38
10
30
48
48
88
B4
80
ENDCHAR
STARTCHAR 1EA7
ENCODING 7847
SWIDTH 514 0
DWIDTH 5 0
BBX 4 7 1 1
BITMAP
40
00
60
10
D0
90
D0
ENDCHAR
STARTCHAR 1EA8
ENCODING 7848
SWIDTH 617 0
DWIDTH 6 0
BBX 6 8 0 1
BITMAP
30
10
30
48
48
88
B4
80
ENDCHAR
STARTCHAR 1EA9
ENCODING 7849
SWIDTH 514 0
DWIDTH 5 0
BBX 4 8 1 0
BITMAP
20
40
00
60
10
D0
90
D0
ENDCHAR
STARTCHAR 1EAA
ENCODING 7850
SWIDTH 617 0
DWIDTH 6 0
BBX 6 9 0 0
BITMAP
10
30
10
30
48
48
88
B4
80
ENDCHAR
STARTCHAR 1EAB
ENCODING 7851
SWIDTH 514 0
DWIDTH 5 0
BBX 4 8 1 0
BITMAP
40
40
00
60
10
D0
90
D0
ENDCHAR
STARTCHAR 1EAC
ENCODING 7852
SWIDTH 617 0
DWIDTH 6 0
BBX 6 10 0 -2
BITMAP
18
10
30
48
48
88
B4
80
00
10
ENDCHAR
STARTCHAR 1EAD
ENCODING 7853
SWIDTH 514 0
DWIDTH 5 0
BBX 4 9 1 -2
BITMAP
40
00
60
10
D0
90
90
40
40
ENDCHAR
STARTCHAR 1EAE
ENCODING 7854
SWIDTH 617 0
DWIDTH 6 0
BBX 6 9 0 0
BITMAP
10
10
10
30
48
48
88
B4
80
ENDCHAR
STARTCHAR 1EAF
ENCODING 7855
SWIDTH 514 0
DWIDTH 5 0
BBX 4 7 1 1
BITMAP
80
40
60
10
D0
90
D0
ENDCHAR
STARTCHAR 1EB0
ENCODING 7856
SWIDTH 617 0
DWIDTH 6 0
BBX 6 8 0 1
BITMAP
10
10
30
48
48
88
B4
80
ENDCHAR
STARTCHAR 1EB1
ENCODING 7857
SWIDTH 514 0
DWIDTH 5 0
BBX 4 7 1 1
BITMAP
C0
40
60
10
D0
90
D0
ENDCHAR
STARTCHAR 1EB2
ENCODING 7858
SWIDTH 617 0
DWIDTH 6 0
BBX 6 8 0 1
BITMAP
10
10
30
48
48
88
B4
80
ENDCHAR
STARTCHAR 1EB3
ENCODING 7859
SWIDTH 514 0
DWIDTH 5 0
BBX 4 7 1 1
BITMAP
80
40
60
10
D0
90
D0
ENDCHAR
STARTCHAR 1EB4
ENCODING 7860
SWIDTH 617 0
DWIDTH 6 0
BBX 6 9 0 0
BITMAP
10
10
10
30
48
48
88
B4
80
ENDCHAR
STARTCHAR 1EB5
ENCODING 7861
SWIDTH 514 0
DWIDTH 5 0
BBX 4 8 1 0
BITMAP
40
80
40
60
10
D0
90
D0
ENDCHAR
STARTCHAR 1EB6
ENCODING 7862
SWIDTH 617 0
DWIDTH 6 0
BBX 6 10 0 -2
BITMAP
10
10
30
48
48
88
B4
80
00
10
ENDCHAR
STARTCHAR 1EB7
ENCODING 7863
SWIDTH 514 0
DWIDTH 5 0
BBX 4 9 1 -2
BITMAP
80
40
60
10
D0
90
90
40
40
ENDCHAR
STARTCHAR 1EB8
ENCODING 7864
SWIDTH 617 0
DWIDTH 6 0
BBX 4 9 1 -2
BITMAP
F0
80
80
F0
80
80
00
F0
20
ENDCHAR
STARTCHAR 1EB9
ENCODING 7865
SWIDTH 514 0
DWIDTH 5 0
BBX 4 6 1 -2
BITMAP
E0
90
F0
80
90
60
ENDCHAR
STARTCHAR 1EBA
ENCODING 7866
SWIDTH 617 0
DWIDTH 6 0
BBX 4 8 1 1
BITMAP
20
D0
80
80
F0
80
80
F0
ENDCHAR
STARTCHAR 1EBB
ENCODING 7867
SWIDTH 514 0
DWIDTH 5 0
BBX 4 7 1 0
BITMAP
20
00
E0
90
F0
80
F0
ENDCHAR
STARTCHAR 1EBC
ENCODING 7868
SWIDTH 617 0
DWIDTH 6 0
BBX 4 8 1 0
BITMAP
20
F0
80
80
F0
80
80
F0
ENDCHAR
STARTCHAR 1EBD
ENCODING 7869
SWIDTH 514 0
DWIDTH 5 0
BBX 4 7 1 0
BITMAP
40
00
E0
90
F0
80
F0
ENDCHAR
STARTCHAR 1EBE
ENCODING 7870
SWIDTH 617 0
DWIDTH 6 0
BBX 4 8 1 1
BITMAP
70
A0
80
80
F0
80
80
F0
ENDCHAR
STARTCHAR 1EBF
ENCODING 7871
SWIDTH 514 0
DWIDTH 5 0
BBX 4 7 1 1
BITMAP
40
00
E0
90
F0
80
F0
ENDCHAR
STARTCHAR 1EC0
ENCODING 7872
SWIDTH 617 0
DWIDTH 6 0
BBX 4 9 1 0
BITMAP
10
70
A0
80
80
F0
80
80
F0
ENDCHAR
STARTCHAR 1EC1
ENCODING 7873
SWIDTH 514 0
DWIDTH 5 0
BBX 4 7 1 1
BITMAP
40
00
E0
90
F0
80
F0
ENDCHAR
STARTCHAR 1EC2
ENCODING 7874
SWIDTH 617 0
DWIDTH 6 0
BBX 4 8 1 1
BITMAP
70
A0
80
80
F0
80
80
F0
ENDCHAR
STARTCHAR 1EC3
ENCODING 7875
SWIDTH 514 0
DWIDTH 5 0
BBX 4 8 1 0
BITMAP
20
40
00
E0
90
F0
80
F0
ENDCHAR
STARTCHAR 1EC4
ENCODING 7876
SWIDTH 617 0
DWIDTH 6 0
BBX 4 9 1 0
BITMAP
20
70
A0
80
80
F0
80
80
F0
ENDCHAR
STARTCHAR 1EC5
ENCODING 7877
SWIDTH 514 0
DWIDTH 5 0
BBX 4 8 1 0
BITMAP
40
40
00
E0
90
F0
80
F0
ENDCHAR
STARTCHAR 1EC6
ENCODING 7878
SWIDTH 617 0
DWIDTH 6 0
BBX 4 10 1 -2
BITMAP
70
A0
80
80
F0
80
80
00
F0
20
ENDCHAR
STARTCHAR 1EC7
ENCODING 7879
SWIDTH 514 0
DWIDTH 5 0
BBX 4 8 1 -2
BITMAP
20
00
E0
90
F0
80
90
60
ENDCHAR
STARTCHAR 1EC8
ENCODING 7880
SWIDTH 205 0
DWIDTH 2 0
BBX 1 7 1 1
BITMAP
80
00
80
80
80
80
80
ENDCHAR
STARTCHAR 1EC9
ENCODING 7881
SWIDTH 205 0
DWIDTH 2 0
BBX 2 6 0 0
BITMAP
40
00
00
80
80
80
ENDCHAR
STARTCHAR 1ECA
ENCODING 7882
SWIDTH 205 0
DWIDTH 2 0
BBX 1 8 1 -1
BITMAP
80
80
80
80
80
00
00
80
ENDCHAR
STARTCHAR 1ECB
ENCODING 7883
SWIDTH 205 0
DWIDTH 2 0
BBX 1 3 1 1
BITMAP
80
80
80
ENDCHAR
STARTCHAR 1ECC
ENCODING 7884
SWIDTH 822 0
DWIDTH 8 0
BBX 7 8 1 -2
BITMAP
78
84
84
82
84
84
48
30
ENDCHAR
STARTCHAR 1ECD
ENCODING 7885
SWIDTH 514 0
DWIDTH 5 0
BBX 4 6 1 -2
BITMAP
F0
90
90
90
90
60
ENDCHAR
STARTCHAR 1ECE
ENCODING 7886
SWIDTH 822 0
DWIDTH 8 0
BBX 7 9 1 0
BITMAP
10
00
78
84
84
82
84
84
78
ENDCHAR
STARTCHAR 1ECF
ENCODING 7887
SWIDTH 514 0
DWIDTH 5 0
BBX 4 7 1 0
BITMAP
20
00
F0
90
90
90
F0
ENDCHAR
STARTCHAR 1ED0
ENCODING 7888
SWIDTH 822 0
DWIDTH 8 0
BBX 7 9 1 0
BITMAP
08
00
78
84
84
82
84
84
78
ENDCHAR
STARTCHAR 1ED1
ENCODING 7889
SWIDTH 514 0
DWIDTH 5 0
BBX 4 5 1 3
BITMAP
F0
90
90
90
F0
ENDCHAR
STARTCHAR 1ED2
ENCODING 7890
SWIDTH 822 0
DWIDTH 8 0
BBX 7 7 1 2
BITMAP
78
84
84
82
84
84
78
ENDCHAR
STARTCHAR 1ED3
ENCODING 7891
SWIDTH 514 0
DWIDTH 5 0
BBX 4 5 1 3
BITMAP
F0
90
90
90
F0
ENDCHAR
STARTCHAR 1ED4
ENCODING 7892
SWIDTH 822 0
DWIDTH 8 0
BBX 7 9 1 0
BITMAP
08
00
78
84
84
82
84
84
78
ENDCHAR
STARTCHAR 1ED5
ENCODING 7893
SWIDTH 514 0
DWIDTH 5 0
BBX 4 8 1 0
BITMAP
20
00
00
F0
90
90
90
F0
ENDCHAR
STARTCHAR 1ED6
ENCODING 7894
SWIDTH 822 0
DWIDTH 8 0
BBX 7 9 1 0
BITMAP
10
00
78
84
84
82
84
84
78
ENDCHAR
STARTCHAR 1ED7
ENCODING 7895
SWIDTH 514 0
DWIDTH 5 0
BBX 4 8 1 0
BITMAP
40
20
00
F0
90
90
90
F0
ENDCHAR
STARTCHAR 1ED8
ENCODING 7896
SWIDTH 822 0
DWIDTH 8 0
BBX 7 8 1 -1
BITMAP
78
84
84
82
84
84
48
30
ENDCHAR
STARTCHAR 1ED9
ENCODING 7897
SWIDTH 514 0
DWIDTH 5 0
BBX 4 8 1 -2
BITMAP
60
00
F0
90
90
90
90
60
ENDCHAR
STARTCHAR 1EDA
ENCODING 7898
SWIDTH 822 0
DWIDTH 8 0
BBX 7 7 1 1
BITMAP
78
84
84
82
84
84
78
ENDCHAR
STARTCHAR 1EDB
ENCODING 7899
SWIDTH 514 0
DWIDTH 5 0
BBX 4 7 1 0
BITMAP
20
00
F0
90
90
90
F0
ENDCHAR
STARTCHAR 1EDC
ENCODING 7900
SWIDTH 822 0
DWIDTH 8 0
BBX 7 7 1 1
BITMAP
78
84
84
82
84
84
78
ENDCHAR
STARTCHAR 1EDD
ENCODING 7901
SWIDTH 514 0
DWIDTH 5 0
BBX 4 7 1 0
BITMAP
40
00
F0
90
90
90
F0
ENDCHAR
STARTCHAR 1EDE
ENCODING 7902
SWIDTH 822 0
DWIDTH 8 0
BBX 7 9 1 0
BITMAP
10
00
78
84
84
82
84
84
78
ENDCHAR
STARTCHAR 1EDF
ENCODING 7903
SWIDTH 514 0
DWIDTH 5 0
BBX 4 7 1 0
BITMAP
20
00
F0
90
90
90
F0
ENDCHAR
STARTCHAR 1EE0
ENCODING 7904
SWIDTH 822 0
DWIDTH 8 0
BBX 7 8 1 0
BITMAP
10
68
84
84
82
84
84
78
ENDCHAR
STARTCHAR 1EE1
ENCODING 7905
SWIDTH 514 0
DWIDTH 5 0
BBX 4 7 1 0
BITMAP
40
20
F0
90
90
90
F0
ENDCHAR
STARTCHAR 1EE2
ENCODING 7906
SWIDTH 822 0
DWIDTH 8 0
BBX 7 8 1 -1
BITMAP
78
84
84
82
84
84
48
30
ENDCHAR
STARTCHAR 1EE3
ENCODING 7907
SWIDTH 514 0
DWIDTH 5 0
BBX 4 6 1 -1
BITMAP
F0
90
90
90
90
60
ENDCHAR
STARTCHAR 1EE4
ENCODING 7908
SWIDTH 720 0
DWIDTH 7 0
BBX 5 7 1 -1
BITMAP
88
88
88
88
88
88
70
ENDCHAR
STARTCHAR 1EE5
ENCODING 7909
SWIDTH 617 0
DWIDTH 6 0
BBX 4 5 1 -1
BITMAP
90
90
90
90
60
ENDCHAR
STARTCHAR 1EE6
ENCODING 7910
SWIDTH 720 0
DWIDTH 7 0
BBX 5 9 1 0
BITMAP
10
00
00
88
88
88
88
88
F8
ENDCHAR
STARTCHAR 1EE7
ENCODING 7911
SWIDTH 617 0
DWIDTH 6 0
BBX 4 7 1 0
BITMAP
20
00
00
90
90
90
F0
ENDCHAR
STARTCHAR 1EE8
ENCODING 7912
SWIDTH 720 0
DWIDTH 7 0
BBX 5 6 1 2
BITMAP
88
88
88
88
88
F8
ENDCHAR
STARTCHAR 1EE9
ENCODING 7913
SWIDTH 617 0
DWIDTH 6 0
BBX 4 4 1 3
BITMAP
90
90
90
F0
ENDCHAR
STARTCHAR 1EEA
ENCODING 7914
SWIDTH 720 0
DWIDTH 7 0
BBX 5 6 1 2
BITMAP
88
88
88
88
88
F8
ENDCHAR
STARTCHAR 1EEB
ENCODING 7915
SWIDTH 617 0
DWIDTH 6 0
BBX 4 4 1 3
BITMAP
90
90
90
F0
ENDCHAR
STARTCHAR 1EEC
ENCODING 7916
SWIDTH 720 0
DWIDTH 7 0
BBX 5 9 1 0
BITMAP
10
00
00
88
88
88
88
88
F8
ENDCHAR
STARTCHAR 1EED
ENCODING 7917
SWIDTH 617 0
DWIDTH 6 0
BBX 4 7 1 0
BITMAP
20
00
00
90
90
90
F0
ENDCHAR
STARTCHAR 1EEE
ENCODING 7918
SWIDTH 720 0
DWIDTH 7 0
BBX 5 8 1 0
BITMAP
10
00
88
88
88
88
88
F8
ENDCHAR
STARTCHAR 1EEF
ENCODING 7919
SWIDTH 617 0
DWIDTH 6 0
BBX 4 7 1 0
BITMAP
40
20
00
90
90
90
F0
ENDCHAR
STARTCHAR 1EF0
ENCODING 7920
SWIDTH 720 0
DWIDTH 7 0
BBX 5 7 1 0
BITMAP
88
88
88
88
88
88
70
ENDCHAR
STARTCHAR 1EF1
ENCODING 7921
SWIDTH 617 0
DWIDTH 6 0
BBX 4 5 1 0
BITMAP
90
90
90
90
60
ENDCHAR
STARTCHAR 1EF2
ENCODING 7922
SWIDTH 514 0
DWIDTH 5 0
BBX 6 6 0 1
BITMAP
84
88
50
50
20
20
ENDCHAR
STARTCHAR 1EF3
ENCODING 7923
SWIDTH 411 0
DWIDTH 4 0
BBX 5 7 0 0
BITMAP
88
90
90
60
20
40
40
ENDCHAR
STARTCHAR 1EF4
ENCODING 7924
SWIDTH 514 0
DWIDTH 5 0
BBX 6 6 0 -2
BITMAP
84
88
50
50
20
20
ENDCHAR
STARTCHAR 1EF5
ENCODING 7925
SWIDTH 411 0
DWIDTH 4 0
BBX 5 7 0 -2
BITMAP
88
90
90
60
20
40
50
ENDCHAR
STARTCHAR 1EF6
ENCODING 7926
SWIDTH 514 0
DWIDTH 5 0
BBX 6 8 0 0
BITMAP
10
00
84
88
50
50
20
20
ENDCHAR
STARTCHAR 1EF7
ENCODING 7927
SWIDTH 411 0
DWIDTH 4 0
BBX 5 7 0 0
BITMAP
88
90
90
60
20
40
40
ENDCHAR
STARTCHAR 1EF8
ENCODING 7928
SWIDTH 514 0
DWIDTH 5 0
BBX 6 7 0 0
BITMAP
10
84
88
50
50
20
20
ENDCHAR
STARTCHAR 1EF9
ENCODING 7929
SWIDTH 411 0
DWIDTH 4 0
BBX 5 9 0 -2
BITMAP
50
20
88
90
90
60
20
40
40
ENDCHAR
STARTCHAR 2007
ENCODING 8199
SWIDTH 617 0
DWIDTH 6 0
BBX 0 0 0 0
BITMAP
ENDCHAR
STARTCHAR 2008
ENCODING 8200
SWIDTH 102 0
DWIDTH 1 0
BBX 0 0 0 0
BITMAP
ENDCHAR
STARTCHAR 2009
ENCODING 8201
SWIDTH 102 0
DWIDTH 1 0
BBX 0 0 0 0
BITMAP
ENDCHAR
STARTCHAR 200A
ENCODING 8202
SWIDTH 0 0
DWIDTH 0 0
BBX 0 0 0 0
BITMAP
ENDCHAR
STARTCHAR 200B
ENCODING 8203
SWIDTH 0 0
DWIDTH 0 0
BBX 0 0 0 0
BITMAP
ENDCHAR
STARTCHAR 2010
ENCODING 8208
SWIDTH 308 0
DWIDTH 3 0
BBX 2 1 1 2
BITMAP
C0
ENDCHAR
STARTCHAR 2012
ENCODING 8210
SWIDTH 617 0
DWIDTH 6 0
BBX 6 1 0 3
BITMAP
FC
ENDCHAR
STARTCHAR 2013
ENCODING 8211
SWIDTH 411 0
DWIDTH 4 0
BBX 5 1 0 2
BITMAP
F8
ENDCHAR
STARTCHAR 2014
ENCODING 8212
SWIDTH 925 0
DWIDTH 9 0
BBX 10 1 0 2
BITMAP
FFC0
ENDCHAR
STARTCHAR 2015
ENCODING 8213
SWIDTH 925 0
DWIDTH 9 0
BBX 10 1 0 2
BITMAP
FFC0
ENDCHAR
STARTCHAR 2018
ENCODING 8216
SWIDTH 102 0
DWIDTH 1 0
BBX 0 0 0 5
BITMAP
ENDCHAR
STARTCHAR 2019
ENCODING 8217
SWIDTH 102 0
DWIDTH 1 0
BBX 0 0 0 5
BITMAP
ENDCHAR
STARTCHAR 201A
ENCODING 8218
SWIDTH 102 0
DWIDTH 1 0
BBX 0 0 0 -1
BITMAP
ENDCHAR
STARTCHAR 201C
ENCODING 8220
SWIDTH 308 0
DWIDTH 3 0
BBX 0 0 1 5
BITMAP
ENDCHAR
STARTCHAR 201D
ENCODING 8221
SWIDTH 308 0
DWIDTH 3 0
BBX 0 0 1 5
BITMAP
ENDCHAR
STARTCHAR 201E
ENCODING 8222
SWIDTH 308 0
DWIDTH 3 0
BBX 0 0 1 -1
BITMAP
ENDCHAR
STARTCHAR 2020
ENCODING 8224
SWIDTH 514 0
DWIDTH 5 0
BBX 3 9 1 -2
BITMAP
40
40
40
E0
40
40
40
40
40
ENDCHAR
STARTCHAR 2021
ENCODING 8225
SWIDTH 514 0
DWIDTH 5 0
BBX 3 9 1 -2
BITMAP
40
40
40
E0
40
40
E0
40
40
ENDCHAR
STARTCHAR 2022
ENCODING 8226
SWIDTH 205 0
DWIDTH 2 0
BBX 1 1 1 2
BITMAP
80
ENDCHAR
STARTCHAR 2026
ENCODING 8230
SWIDTH 514 0
DWIDTH 5 0
BBX 0 0 1 0
BITMAP
ENDCHAR
STARTCHAR 2030
ENCODING 8240
SWIDTH 1131 0
DWIDTH 11 0
BBX 11 7 0 0
BITMAP
E000
A800
A800
B440
6BA0
2B20
0FC0
ENDCHAR
STARTCHAR 2032
ENCODING 8242
SWIDTH 102 0
DWIDTH 1 0
BBX 1 1 0 5
BITMAP
80
ENDCHAR
STARTCHAR 2033
ENCODING 8243
SWIDTH 308 0
DWIDTH 3 0
BBX 1 1 1 5
BITMAP
80
ENDCHAR
STARTCHAR 2039
ENCODING 8249
SWIDTH 205 0
DWIDTH 2 0
BBX 1 3 1 1
BITMAP
80
80
80
ENDCHAR
STARTCHAR 203A
ENCODING 8250
SWIDTH 205 0
DWIDTH 2 0
BBX 1 1 1 2
BITMAP
80
ENDCHAR
STARTCHAR 2044
ENCODING 8260
SWIDTH 102 0
DWIDTH 1 0
BBX 3 5 -1 1
BITMAP
20
20
40
80
80
ENDCHAR
STARTCHAR 2052
ENCODING 8274
SWIDTH 411 0
DWIDTH 4 0
BBX 2 6 1 0
BITMAP
80
40
40
80
80
80
ENDCHAR
STARTCHAR 2070
ENCODING 8304
SWIDTH 411 0
DWIDTH 4 0
BBX 4 4 0 3
BITMAP
E0
90
90
E0
ENDCHAR
STARTCHAR 2074
ENCODING 8308
SWIDTH 411 0
DWIDTH 4 0
BBX 4 2 0 4
BITMAP
C0
F0
ENDCHAR
STARTCHAR 2075
ENCODING 8309
SWIDTH 411 0
DWIDTH 4 0
BBX 4 4 0 3
BITMAP
40
80
70
60
ENDCHAR
STARTCHAR 2076
ENCODING 8310
SWIDTH 411 0
DWIDTH 4 0
BBX 4 4 0 3
BITMAP
40
A0
D0
E0
ENDCHAR
STARTCHAR 2077
ENCODING 8311
SWIDTH 411 0
DWIDTH 4 0
BBX 4 3 0 3
BITMAP
F0
20
40
ENDCHAR
STARTCHAR 2078
ENCODING 8312
SWIDTH 411 0
DWIDTH 4 0
BBX 4 4 0 3
BITMAP
F0
A0
D0
E0
ENDCHAR
STARTCHAR 2079
ENCODING 8313
SWIDTH 411 0
DWIDTH 4 0
BBX 4 4 0 3
BITMAP
E0
90
70
20
ENDCHAR
STARTCHAR 2080
ENCODING 8320
SWIDTH 411 0
DWIDTH 4 0
BBX 4 4 0 -1
BITMAP
E0
90
90
E0
ENDCHAR
STARTCHAR 2081
ENCODING 8321
SWIDTH 411 0
DWIDTH 4 0
BBX 2 3 1 0
BITMAP
80
80
40
ENDCHAR
STARTCHAR 2082
ENCODING 8322
SWIDTH 411 0
DWIDTH 4 0
BBX 3 4 0 -1
BITMAP
E0
20
40
E0
ENDCHAR
STARTCHAR 2083
ENCODING 8323
SWIDTH 411 0
DWIDTH 4 0
BBX 3 4 0 -1
BITMAP
60
60
20
E0
ENDCHAR
STARTCHAR 2084
ENCODING 8324
SWIDTH 411 0
DWIDTH 4 0
BBX 3 3 0 0
BITMAP
C0
80
60
ENDCHAR
STARTCHAR 2085
ENCODING 8325
SWIDTH 411 0
DWIDTH 4 0
BBX 4 4 0 -1
BITMAP
40
80
70
60
ENDCHAR
STARTCHAR 2086
ENCODING 8326
SWIDTH 411 0
DWIDTH 4 0
BBX 4 4 0 -1
BITMAP
40
80
F0
E0
ENDCHAR
STARTCHAR 2087
ENCODING 8327
SWIDTH 411 0
DWIDTH 4 0
BBX 4 3 0 -1
BITMAP
F0
20
20
ENDCHAR
STARTCHAR 2088
ENCODING 8328
SWIDTH 411 0
DWIDTH 4 0
BBX 4 4 0 -1
BITMAP
F0
A0
D0
F0
ENDCHAR
STARTCHAR 2089
ENCODING 8329
SWIDTH 411 0
DWIDTH 4 0
BBX 4 4 0 -1
BITMAP
E0
90
70
20
ENDCHAR
STARTCHAR 20A1
ENCODING 8353
SWIDTH 617 0
DWIDTH 6 0
BBX 5 8 1 0
BITMAP
78
B0
B0
D0
E0
E0
60
30
ENDCHAR
STARTCHAR 20A3
ENCODING 8355
SWIDTH 617 0
DWIDTH 6 0
BBX 4 7 1 0
BITMAP
F0
80
80
80
E0
C0
80
ENDCHAR
STARTCHAR 20A4
ENCODING 8356
SWIDTH 617 0
DWIDTH 6 0
BBX 4 7 1 0
BITMAP
70
80
80
E0
E0
80
F0
ENDCHAR
STARTCHAR 20A6
ENCODING 8358
SWIDTH 822 0
DWIDTH 8 0
BBX 6 7 1 0
BITMAP
80
C4
C4
BC
DC
8C
84
ENDCHAR
STARTCHAR 20A7
ENCODING 8359
SWIDTH 1542 0
DWIDTH 15 0
BBX 14 7 1 0
BITMAP
F000
8800
8B3C
8A40
F238
8204
013C
ENDCHAR
STARTCHAR 20A9
ENCODING 8361
SWIDTH 1028 0
DWIDTH 10 0
BBX 10 7 0 0
BITMAP
0400
8C40
4C40
7380
7FC0
3180
2100
ENDCHAR
STARTCHAR 20AB
ENCODING 8363
SWIDTH 617 0
DWIDTH 6 0
BBX 5 7 1 0
BITMAP
18
F0
90
90
90
A0
60
ENDCHAR
STARTCHAR 20AC
ENCODING 8364
SWIDTH 720 0
DWIDTH 7 0
BBX 6 7 1 0
BITMAP
38
C0
80
E0
E0
80
7C
ENDCHAR
STARTCHAR 20AD
ENCODING 8365
SWIDTH 514 0
DWIDTH 5 0
BBX 5 7 0 0
BITMAP
40
50
60
F8
40
50
48
ENDCHAR
STARTCHAR 20AE
ENCODING 8366
SWIDTH 617 0
DWIDTH 6 0
BBX 3 6 2 0
BITMAP
E0
80
80
C0
C0
80
ENDCHAR
STARTCHAR 20B1
ENCODING 8369
SWIDTH 720 0
DWIDTH 7 0
BBX 6 7 1 0
BITMAP
F0
88
FC
FC
F0
80
80
ENDCHAR
STARTCHAR 20B2
ENCODING 8370
SWIDTH 720 0
DWIDTH 7 0
BBX 5 8 1 0
BITMAP
78
A0
A0
A0
A0
A0
60
10
ENDCHAR
STARTCHAR 20B4
ENCODING 8372
SWIDTH 822 0
DWIDTH 8 0
BBX 5 7 1 0
BITMAP
70
08
00
78
78
80
70
ENDCHAR
STARTCHAR 20B5
ENCODING 8373
SWIDTH 617 0
DWIDTH 6 0
BBX 5 8 1 0
BITMAP
78
A0
A0
A0
A0
A0
60
10
ENDCHAR
STARTCHAR 20B8
ENCODING 8376
SWIDTH 617 0
DWIDTH 6 0
BBX 5 7 1 0
BITMAP
70
F8
20
20
20
20
20
ENDCHAR
STARTCHAR 20B9
ENCODING 8377
SWIDTH 617 0
DWIDTH 6 0
BBX 4 7 1 0
BITMAP
F0
10
F0
00
70
20
10
ENDCHAR
STARTCHAR 20BA
ENCODING 8378
SWIDTH 617 0
DWIDTH 6 0
BBX 6 7 0 0
BITMAP
40
50
68
70
C0
44
78
ENDCHAR
STARTCHAR 20BC
ENCODING 8380
SWIDTH 822 0
DWIDTH 8 0
BBX 7 8 1 0
BITMAP
10
38
D4
94
92
92
92
02
ENDCHAR
STARTCHAR 20BD
ENCODING 8381
SWIDTH 617 0
DWIDTH 6 0
BBX 5 7 1 0
BITMAP
F0
88
88
88
F0
80
80
ENDCHAR
STARTCHAR 2113
ENCODING 8467
SWIDTH 411 0
DWIDTH 4 0
BBX 3 7 1 0
BITMAP
60
A0
A0
C0
80
80
E0
ENDCHAR
STARTCHAR 2116
ENCODING 8470
SWIDTH 1131 0
DWIDTH 11 0
BBX 10 7 1 0
BITMAP
8580
8640
C640
A580
9480
8C00
0400
ENDCHAR
STARTCHAR 2122
ENCODING 8482
SWIDTH 925 0
DWIDTH 9 0
BBX 7 4 1 3
BITMAP
A2
B2
AE
08
ENDCHAR
STARTCHAR 2126
ENCODING 8486
SWIDTH 822 0
DWIDTH 8 0
BBX 8 7 0 0
BITMAP
3C
42
81
81
81
42
63
ENDCHAR
STARTCHAR 212A
ENCODING 8490
SWIDTH 617 0
DWIDTH 6 0
BBX 5 6 1 1
BITMAP
90
A0
C0
A0
90
08
ENDCHAR
STARTCHAR 212B
ENCODING 8491
SWIDTH 617 0
DWIDTH 6 0
BBX 6 9 0 0
BITMAP
30
00
10
30
48
48
88
B4
80
ENDCHAR
STARTCHAR 212E
ENCODING 8494
SWIDTH 822 0
DWIDTH 8 0
BBX 7 7 1 0
BITMAP
38
C4
82
FE
80
80
78
ENDCHAR
STARTCHAR 2153
ENCODING 8531
SWIDTH 925 0
DWIDTH 9 0
BBX 8 6 1 1
BITMAP
88
88
13
63
21
03
ENDCHAR
STARTCHAR 2154
ENCODING 8532
SWIDTH 925 0
DWIDTH 9 0
BBX 9 7 0 0
BITMAP
6000
2400
2400
C980
7180
1080
0180
ENDCHAR
STARTCHAR 215B
ENCODING 8539
SWIDTH 925 0
DWIDTH 9 0
BBX 8 6 1 1
BITMAP
88
88
17
65
2B
07
ENDCHAR
STARTCHAR 215C
ENCODING 8540
SWIDTH 925 0
DWIDTH 9 0
BBX 8 7 1 0
BITMAP
C0
C8
48
17
E5
2B
07
ENDCHAR
STARTCHAR 215D
ENCODING 8541
SWIDTH 925 0
DWIDTH 9 0
BBX 9 7 0 0
BITMAP
4000
8400
6400
1B80
7280
1580
0380
ENDCHAR
STARTCHAR 215E
ENCODING 8542
SWIDTH 925 0
DWIDTH 9 0
BBX 9 7 0 0
BITMAP
F000
2400
2400
0B80
1280
1580
0380
ENDCHAR
STARTCHAR 2190
ENCODING 8592
SWIDTH 514 0
DWIDTH 5 0
BBX 3 1 1 2
BITMAP
E0
ENDCHAR
STARTCHAR 2191
ENCODING 8593
SWIDTH 514 0
DWIDTH 5 0
BBX 3 2 1 2
BITMAP
E0
40
ENDCHAR
STARTCHAR 2192
ENCODING 8594
SWIDTH 514 0
DWIDTH 5 0
BBX 3 2 2 1
BITMAP
40
A0
ENDCHAR
STARTCHAR 2193
ENCODING 8595
SWIDTH 514 0
DWIDTH 5 0
BBX 2 2 2 2
BITMAP
80
C0
ENDCHAR
STARTCHAR 2194
ENCODING 8596
SWIDTH 514 0
DWIDTH 5 0
BBX 5 3 0 1
BITMAP
08
B8
48
ENDCHAR
STARTCHAR 2195
ENCODING 8597
SWIDTH 514 0
DWIDTH 5 0
BBX 3 5 2 1
BITMAP
80
E0
80
80
C0
ENDCHAR
STARTCHAR 2196
ENCODING 8598
SWIDTH 514 0
DWIDTH 5 0
BBX 3 3 1 1
BITMAP
40
C0
20
ENDCHAR
STARTCHAR 2197
ENCODING 8599
SWIDTH 514 0
DWIDTH 5 0
BBX 4 3 1 1
BITMAP
20
50
80
ENDCHAR
STARTCHAR 2198
ENCODING 8600
SWIDTH 514 0
DWIDTH 5 0
BBX 3 3 2 1
BITMAP
20
C0
40
ENDCHAR
STARTCHAR 2199
ENCODING 8601
SWIDTH 514 0
DWIDTH 5 0
BBX 3 3 1 1
BITMAP
A0
80
40
ENDCHAR
STARTCHAR 2202
ENCODING 8706
SWIDTH 617 0
DWIDTH 6 0
BBX 5 7 1 0
BITMAP
E0
10
08
F8
88
88
F0
ENDCHAR
STARTCHAR 2205
ENCODING 8709
SWIDTH 514 0
DWIDTH 5 0
BBX 5 4 0 1
BITMAP
70
A8
D0
70
ENDCHAR
STARTCHAR 2206
ENCODING 8710
SWIDTH 617 0
DWIDTH 6 0
BBX 6 7 0 0
BITMAP
10
30
48
48
88
84
FC
ENDCHAR
STARTCHAR 220F
ENCODING 8719
SWIDTH 720 0
DWIDTH 7 0
BBX 6 9 1 -2
BITMAP
FC
84
84
84
84
84
84
84
04
ENDCHAR
STARTCHAR 2211
ENCODING 8721
SWIDTH 617 0
DWIDTH 6 0
BBX 5 9 0 -2
BITMAP
78
40
20
20
10
20
20
40
F8
ENDCHAR
STARTCHAR 2212
ENCODING 8722
SWIDTH 514 0
DWIDTH 5 0
BBX 2 1 2 3
BITMAP
C0
ENDCHAR
STARTCHAR 2215
ENCODING 8725
SWIDTH 205 0
DWIDTH 2 0
BBX 3 7 0 0
BITMAP
20
40
40
40
80
80
80
ENDCHAR
STARTCHAR 2219
ENCODING 8729
SWIDTH 205 0
DWIDTH 2 0
BBX 0 0 1 3
BITMAP
ENDCHAR
STARTCHAR 221A
ENCODING 8730
SWIDTH 720 0
DWIDTH 7 0
BBX 5 8 2 -1
BITMAP
08
08
10
90
A0
A0
60
40
ENDCHAR
STARTCHAR 221E
ENCODING 8734
SWIDTH 822 0
DWIDTH 8 0
BBX 7 3 1 2
BITMAP
FE
92
FE
ENDCHAR
STARTCHAR 222B
ENCODING 8747
SWIDTH 308 0
DWIDTH 3 0
BBX 2 9 1 -2
BITMAP
40
80
80
80
80
80
80
80
80
ENDCHAR
STARTCHAR 2248
ENCODING 8776
SWIDTH 514 0
DWIDTH 5 0
BBX 3 3 2 2
BITMAP
A0
40
C0
ENDCHAR
STARTCHAR 2260
ENCODING 8800
SWIDTH 514 0
DWIDTH 5 0
BBX 4 4 1 2
BITMAP
F0
40
80
60
ENDCHAR
STARTCHAR 2264
ENCODING 8804
SWIDTH 514 0
DWIDTH 5 0
BBX 3 5 1 0
BITMAP
20
C0
40
20
60
ENDCHAR
STARTCHAR 2265
ENCODING 8805
SWIDTH 514 0
DWIDTH 5 0
BBX 4 5 1 0
BITMAP
80
70
60
00
60
ENDCHAR
STARTCHAR 25A0
ENCODING 9632
SWIDTH 514 0
DWIDTH 5 0
BBX 4 3 1 1
BITMAP
F0
F0
F0
ENDCHAR
STARTCHAR 25A1
ENCODING 9633
SWIDTH 514 0
DWIDTH 5 0
BBX 4 3 1 1
BITMAP
F0
90
F0
ENDCHAR
STARTCHAR 25B2
ENCODING 9650
SWIDTH 514 0
DWIDTH 5 0
BBX 4 4 1 1
BITMAP
40
60
E0
F0
ENDCHAR
STARTCHAR 25B3
ENCODING 9651
SWIDTH 514 0
DWIDTH 5 0
BBX 4 4 1 1
BITMAP
40
A0
A0
F0
ENDCHAR
STARTCHAR 25B6
ENCODING 9654
SWIDTH 514 0
DWIDTH 5 0
BBX 4 3 1 2
BITMAP
C0
F0
C0
ENDCHAR
STARTCHAR 25B7
ENCODING 9655
SWIDTH 514 0
DWIDTH 5 0
BBX 4 3 1 2
BITMAP
C0
B0
E0
ENDCHAR
STARTCHAR 25BC
ENCODING 9660
SWIDTH 514 0
DWIDTH 5 0
BBX 4 4 1 0
BITMAP
F0
E0
60
40
ENDCHAR
STARTCHAR 25BD
ENCODING 9661
SWIDTH 514 0
DWIDTH 5 0
BBX 4 4 1 0
BITMAP
F0
A0
A0
40
ENDCHAR
STARTCHAR 25C0
ENCODING 9664
SWIDTH 514 0
DWIDTH 5 0
BBX 4 4 1 0
BITMAP
10
70
F0
30
ENDCHAR
STARTCHAR 25C1
ENCODING 9665
SWIDTH 514 0
DWIDTH 5 0
BBX 4 5 1 0
BITMAP
10
70
90
50
20
ENDCHAR
STARTCHAR 25C6
ENCODING 9670
SWIDTH 514 0
DWIDTH 5 0
BBX 6 5 0 0
BITMAP
30
78
FC
78
30
ENDCHAR
STARTCHAR 25C7
ENCODING 9671
SWIDTH 514 0
DWIDTH 5 0
BBX 6 5 0 0
BITMAP
70
88
84
48
30
ENDCHAR
STARTCHAR 25CA
ENCODING 9674
SWIDTH 411 0
DWIDTH 4 0
BBX 3 6 1 0
BITMAP
C0
C0
A0
A0
C0
40
ENDCHAR
STARTCHAR 27E8
ENCODING 10216
SWIDTH 205 0
DWIDTH 2 0
BBX 1 7 1 -1
BITMAP
80
80
80
80
80
80
80
ENDCHAR
STARTCHAR 27E9
ENCODING 10217
SWIDTH 205 0
DWIDTH 2 0
BBX 1 7 1 -1
BITMAP
80
80
80
80
80
80
80
ENDCHAR
STARTCHAR A78B
ENCODING 42891
SWIDTH 205 0
DWIDTH 2 0
BBX 1 2 1 4
BITMAP
80
80
ENDCHAR
STARTCHAR A78C
ENCODING 42892
SWIDTH 205 0
DWIDTH 2 0
BBX 1 1 1 4
BITMAP
80
ENDCHAR
STARTCHAR FB01
ENCODING 64257
SWIDTH 514 0
DWIDTH 5 0
BBX 4 5 0 1
BITMAP
80
C0
90
90
90
ENDCHAR
STARTCHAR FB02
ENCODING 64258
SWIDTH 514 0
DWIDTH 5 0
BBX 4 5 0 1
BITMAP
90
D0
90
90
90
ENDCHAR
ENDFONT
